Armada-Condensed_Thin.ufo
<glyph name="exclam" format="1">
  <advance width="148"/>
  <unicode hex="0021"/>
  <outline>
    <contour>
      <point x="80" y="174" type="line"/>
      <point x="67" y="174" type="line"/>
      <point x="67" y="720" type="line"/>
      <point x="80" y="720" type="line"/>
    </contour>
    <contour>
      <point x="80" y="0" type="line"/>
      <point x="67" y="0" type="line"/>
      <point x="67" y="96" type="line"/>
      <point x="80" y="96" type="line"/>
    </contour>
  </outline>
</glyph>
<glyph name="quotedbl" format="1">
  <advance width="233"/>
  <unicode hex="0022"/>
  <outline>
    <contour>
      <point x="176" y="488" type="line"/>
      <point x="163" y="488" type="line"/>
      <point x="163" y="720" type="line"/>
      <point x="176" y="720" type="line"/>
    </contour>
    <contour>
      <point x="69" y="488" type="line"/>
      <point x="56" y="488" type="line"/>
      <point x="56" y="720" type="line"/>
      <point x="69" y="720" type="line"/>
    </contour>
  </outline>
</glyph>
<glyph name="numbersign" format="1">
  <advance width="407"/>
  <unicode hex="0023"/>
  <outline>
    <contour>
      <point x="367" y="219" type="line"/>
      <point x="291" y="219" type="line"/>
      <point x="291" y="0" type="line"/>
      <point x="278" y="0" type="line"/>
      <point x="278" y="219" type="line"/>
      <point x="129" y="219" type="line"/>
      <point x="129" y="0" type="line"/>
      <point x="116" y="0" type="line"/>
      <point x="116" y="219" type="line"/>
      <point x="39" y="219" type="line"/>
      <point x="39" y="231" type="line"/>
      <point x="116" y="231" type="line"/>
      <point x="116" y="489" type="line"/>
      <point x="39" y="489" type="line"/>
      <point x="39" y="501" type="line"/>
      <point x="116" y="501" type="line"/>
      <point x="116" y="720" type="line"/>
      <point x="129" y="720" type="line"/>
      <point x="129" y="501" type="line"/>
      <point x="278" y="501" type="line"/>
      <point x="278" y="720" type="line"/>
      <point x="291" y="720" type="line"/>
      <point x="291" y="501" type="line"/>
      <point x="367" y="501" type="line"/>
      <point x="367" y="489" type="line"/>
      <point x="291" y="489" type="line"/>
      <point x="291" y="231" type="line"/>
      <point x="367" y="231" type="line"/>
    </contour>
    <contour>
      <point x="278" y="231" type="line"/>
      <point x="278" y="489" type="line"/>
      <point x="129" y="489" type="line"/>
      <point x="129" y="231" type="line"/>
    </contour>
  </outline>
</glyph>
<glyph name="dollar" format="1">
  <advance width="391"/>
  <unicode hex="0024"/>
  <outline>
    <contour>
      <point x="327" y="38" type="line"/>
      <point x="290" y="9"/>
      <point x="242" y="-1"/>
      <point x="202" y="-2" type="curve"/>
      <point x="202" y="-90" type="line"/>
      <point x="189" y="-90" type="line"/>
      <point x="189" y="-2" type="line"/>
      <point x="150" y="-1"/>
      <point x="102" y="9"/>
      <point x="64" y="38" type="curve"/>
      <point x="64" y="227" type="line"/>
      <point x="77" y="227" type="line"/>
      <point x="77" y="45" type="line"/>
      <point x="114" y="17"/>
      <point x="159" y="9"/>
      <point x="196" y="9" type="curve" smooth="yes"/>
      <point x="233" y="9"/>
      <point x="278" y="17"/>
      <point x="314" y="45" type="curve"/>
      <point x="314" y="264" type="line"/>
      <point x="66" y="446" type="line"/>
      <point x="66" y="682" type="line"/>
      <point x="103" y="711"/>
      <point x="150" y="721"/>
      <point x="189" y="722" type="curve"/>
      <point x="189" y="797" type="line"/>
      <point x="202" y="797" type="line"/>
      <point x="202" y="722" type="line"/>
      <point x="242" y="721"/>
      <point x="288" y="711"/>
      <point x="326" y="682" type="curve"/>
      <point x="326" y="493" type="line"/>
      <point x="313" y="493" type="line"/>
      <point x="313" y="675" type="line"/>
      <point x="276" y="703"/>
      <point x="233" y="711"/>
      <point x="196" y="711" type="curve" smooth="yes"/>
      <point x="159" y="711"/>
      <point x="115" y="703"/>
      <point x="79" y="675" type="curve"/>
      <point x="79" y="451" type="line"/>
      <point x="327" y="269" type="line"/>
    </contour>
  </outline>
</glyph>
<glyph name="percent" format="1">
  <advance width="619"/>
  <unicode hex="0025"/>
  <outline>
    <contour>
      <point x="240" y="381" type="line"/>
      <point x="212" y="358"/>
      <point x="182" y="349"/>
      <point x="148" y="349" type="curve" smooth="yes"/>
      <point x="113" y="349"/>
      <point x="83" y="358"/>
      <point x="55" y="381" type="curve"/>
      <point x="55" y="694" type="line"/>
      <point x="83" y="717"/>
      <point x="113" y="726"/>
      <point x="148" y="726" type="curve" smooth="yes"/>
      <point x="182" y="726"/>
      <point x="212" y="717"/>
      <point x="240" y="694" type="curve"/>
    </contour>
    <contour>
      <point x="416" y="720" type="line"/>
      <point x="216" y="0" type="line"/>
      <point x="202" y="0" type="line"/>
      <point x="403" y="720" type="line"/>
    </contour>
    <contour>
      <point x="563" y="26" type="line"/>
      <point x="535" y="3"/>
      <point x="505" y="-6"/>
      <point x="471" y="-6" type="curve" smooth="yes"/>
      <point x="436" y="-6"/>
      <point x="406" y="3"/>
      <point x="378" y="26" type="curve"/>
      <point x="378" y="339" type="line"/>
      <point x="406" y="362"/>
      <point x="436" y="371"/>
      <point x="471" y="371" type="curve" smooth="yes"/>
      <point x="505" y="371"/>
      <point x="535" y="362"/>
      <point x="563" y="339" type="curve"/>
    </contour>
    <contour>
      <point x="227" y="388" type="curve"/>
      <point x="227" y="687" type="line"/>
      <point x="202" y="708"/>
      <point x="174" y="714"/>
      <point x="148" y="714" type="curve" smooth="yes"/>
      <point x="122" y="714"/>
      <point x="94" y="708"/>
      <point x="68" y="687" type="curve"/>
      <point x="68" y="388" type="line"/>
      <point x="94" y="367"/>
      <point x="122" y="361"/>
      <point x="148" y="361" type="curve" smooth="yes"/>
      <point x="174" y="361"/>
      <point x="202" y="367"/>
    </contour>
    <contour>
      <point x="550" y="33" type="curve"/>
      <point x="550" y="332" type="line"/>
      <point x="525" y="353"/>
      <point x="497" y="359"/>
      <point x="471" y="359" type="curve" smooth="yes"/>
      <point x="445" y="359"/>
      <point x="417" y="353"/>
      <point x="391" y="332" type="curve"/>
      <point x="391" y="33" type="line"/>
      <point x="417" y="12"/>
      <point x="445" y="6"/>
      <point x="471" y="6" type="curve" smooth="yes"/>
      <point x="497" y="6"/>
      <point x="525" y="12"/>
    </contour>
  </outline>
</glyph>
<glyph name="ampersand" format="1">
  <advance width="415"/>
  <unicode hex="0026"/>
  <outline>
    <contour>
      <point x="364" y="366" type="line"/>
      <point x="321" y="366" type="line"/>
      <point x="321" y="27" type="line"/>
      <point x="285" y="3"/>
      <point x="234" y="-6"/>
      <point x="189" y="-6" type="curve" smooth="yes"/>
      <point x="144" y="-6"/>
      <point x="93" y="4"/>
      <point x="57" y="33" type="curve"/>
      <point x="57" y="325" type="line"/>
      <point x="84" y="354"/>
      <point x="119" y="368"/>
      <point x="148" y="372" type="curve"/>
      <point x="119" y="375"/>
      <point x="84" y="391"/>
      <point x="59" y="418" type="curve"/>
      <point x="59" y="684" type="line"/>
      <point x="96" y="715"/>
      <point x="147" y="726"/>
      <point x="190" y="726" type="curve" smooth="yes"/>
      <point x="234" y="726"/>
      <point x="285" y="716"/>
      <point x="321" y="690" type="curve"/>
      <point x="321" y="493" type="line"/>
      <point x="308" y="493" type="line"/>
      <point x="308" y="682" type="line"/>
      <point x="276" y="705"/>
      <point x="230" y="714"/>
      <point x="190" y="714" type="curve" smooth="yes"/>
      <point x="150" y="714"/>
      <point x="104" y="703"/>
      <point x="72" y="676" type="curve"/>
      <point x="72" y="422" type="line"/>
      <point x="101" y="389"/>
      <point x="145" y="377"/>
      <point x="188" y="377" type="curve" smooth="yes"/>
      <point x="364" y="377" type="line"/>
    </contour>
    <contour>
      <point x="308" y="34" type="curve"/>
      <point x="308" y="366" type="line"/>
      <point x="184" y="366" type="line" smooth="yes"/>
      <point x="144" y="366"/>
      <point x="103" y="355"/>
      <point x="70" y="321" type="curve"/>
      <point x="70" y="39" type="line"/>
      <point x="103" y="15"/>
      <point x="149" y="6"/>
      <point x="189" y="6" type="curve" smooth="yes"/>
      <point x="230" y="6"/>
      <point x="275" y="14"/>
    </contour>
  </outline>
</glyph>
<glyph name="quotesingle" format="1">
  <advance width="126"/>
  <unicode hex="0027"/>
  <outline>
    <contour>
      <point x="69" y="488" type="line"/>
      <point x="56" y="488" type="line"/>
      <point x="56" y="720" type="line"/>
      <point x="69" y="720" type="line"/>
    </contour>
  </outline>
</glyph>
<glyph name="parenleft" format="1">
  <advance width="205"/>
  <unicode hex="0028"/>
  <outline>
    <contour>
      <point x="160" y="-5" type="line"/>
      <point x="120" y="-1"/>
      <point x="87" y="15"/>
      <point x="64" y="41" type="curve"/>
      <point x="64" y="679" type="line"/>
      <point x="87" y="705"/>
      <point x="120" y="721"/>
      <point x="160" y="725" type="curve"/>
      <point x="160" y="712" type="line"/>
      <point x="125" y="709"/>
      <point x="94" y="695"/>
      <point x="77" y="674" type="curve"/>
      <point x="77" y="46" type="line"/>
      <point x="94" y="25"/>
      <point x="125" y="11"/>
      <point x="160" y="8" type="curve"/>
    </contour>
  </outline>
</glyph>
<glyph name="parenright" format="1">
  <advance width="205"/>
  <unicode hex="0029"/>
  <outline>
    <contour>
      <point x="140" y="41" type="line"/>
      <point x="118" y="15"/>
      <point x="84" y="-1"/>
      <point x="44" y="-5" type="curve"/>
      <point x="44" y="8" type="line"/>
      <point x="80" y="11"/>
      <point x="110" y="25"/>
      <point x="127" y="46" type="curve"/>
      <point x="127" y="674" type="line"/>
      <point x="110" y="695"/>
      <point x="80" y="709"/>
      <point x="44" y="712" type="curve"/>
      <point x="44" y="725" type="line"/>
      <point x="84" y="721"/>
      <point x="118" y="705"/>
      <point x="140" y="679" type="curve"/>
    </contour>
  </outline>
</glyph>
<glyph name="asterisk" format="1">
  <advance width="347"/>
  <unicode hex="002A"/>
  <outline>
    <contour>
      <point x="290" y="316" type="line"/>
      <point x="277" y="316" type="line"/>
      <point x="277" y="431" type="line"/>
      <point x="261" y="448"/>
      <point x="227" y="465"/>
      <point x="180" y="470" type="curve"/>
      <point x="180" y="234" type="line"/>
      <point x="167" y="234" type="line"/>
      <point x="167" y="470" type="line"/>
      <point x="119" y="465"/>
      <point x="85" y="448"/>
      <point x="70" y="431" type="curve"/>
      <point x="70" y="316" type="line"/>
      <point x="57" y="316" type="line"/>
      <point x="57" y="435" type="line"/>
      <point x="77" y="457"/>
      <point x="114" y="472"/>
      <point x="147" y="477" type="curve"/>
      <point x="114" y="482"/>
      <point x="77" y="498"/>
      <point x="57" y="520" type="curve"/>
      <point x="57" y="639" type="line"/>
      <point x="70" y="639" type="line"/>
      <point x="70" y="524" type="line"/>
      <point x="85" y="506"/>
      <point x="119" y="490"/>
      <point x="167" y="484" type="curve"/>
      <point x="167" y="721" type="line"/>
      <point x="180" y="721" type="line"/>
      <point x="180" y="484" type="line"/>
      <point x="227" y="490"/>
      <point x="261" y="506"/>
      <point x="277" y="524" type="curve"/>
      <point x="277" y="639" type="line"/>
      <point x="290" y="639" type="line"/>
      <point x="290" y="520" type="line"/>
      <point x="270" y="498"/>
      <point x="233" y="482"/>
      <point x="199" y="477" type="curve"/>
      <point x="233" y="472"/>
      <point x="270" y="457"/>
      <point x="290" y="435" type="curve"/>
    </contour>
  </outline>
</glyph>
<glyph name="plus" format="1">
  <advance width="296"/>
  <unicode hex="002B"/>
  <outline>
    <contour>
      <point x="263" y="366" type="line"/>
      <point x="155" y="366" type="line"/>
      <point x="155" y="200" type="line"/>
      <point x="142" y="200" type="line"/>
      <point x="142" y="366" type="line"/>
      <point x="34" y="366" type="line"/>
      <point x="34" y="378" type="line"/>
      <point x="142" y="378" type="line"/>
      <point x="142" y="540" type="line"/>
      <point x="155" y="540" type="line"/>
      <point x="155" y="378" type="line"/>
      <point x="263" y="378" type="line"/>
    </contour>
  </outline>
</glyph>
<glyph name="comma" format="1">
  <advance width="126"/>
  <unicode hex="002C"/>
  <outline>
    <contour>
      <point x="76" y="96" type="line"/>
      <point x="54" y="-57" type="line"/>
      <point x="41" y="-57" type="line"/>
      <point x="63" y="96" type="line"/>
    </contour>
  </outline>
</glyph>
<glyph name="slash" format="1">
  <advance width="260"/>
  <unicode hex="002F"/>
  <outline>
    <contour>
      <point x="214" y="720" type="line"/>
      <point x="59" y="0" type="line"/>
      <point x="46" y="0" type="line"/>
      <point x="201" y="720" type="line"/>
    </contour>
  </outline>
</glyph>
<glyph name="zero" format="1">
  <advance width="411"/>
  <unicode hex="0030"/>
  <outline>
    <contour>
      <point x="347" y="39" type="line"/>
      <point x="304" y="8"/>
      <point x="258" y="-6"/>
      <point x="206" y="-6" type="curve" smooth="yes"/>
      <point x="154" y="-6"/>
      <point x="108" y="8"/>
      <point x="64" y="39" type="curve"/>
      <point x="64" y="681" type="line"/>
      <point x="108" y="712"/>
      <point x="154" y="726"/>
      <point x="206" y="726" type="curve" smooth="yes"/>
      <point x="258" y="726"/>
      <point x="304" y="712"/>
      <point x="347" y="681" type="curve"/>
    </contour>
    <contour>
      <point x="334" y="46" type="curve"/>
      <point x="334" y="674" type="line"/>
      <point x="294" y="702"/>
      <point x="254" y="714"/>
      <point x="206" y="714" type="curve" smooth="yes"/>
      <point x="158" y="714"/>
      <point x="118" y="702"/>
      <point x="77" y="674" type="curve"/>
      <point x="77" y="46" type="line"/>
      <point x="118" y="18"/>
      <point x="158" y="6"/>
      <point x="206" y="6" type="curve" smooth="yes"/>
      <point x="254" y="6"/>
      <point x="294" y="18"/>
    </contour>
  </outline>
</glyph>
<glyph name="one" format="1">
  <advance width="256"/>
  <unicode hex="0031"/>
  <outline>
    <contour>
      <point x="220" y="0" type="line"/>
      <point x="42" y="0" type="line"/>
      <point x="42" y="12" type="line"/>
      <point x="124" y="12" type="line"/>
      <point x="124" y="708" type="line"/>
      <point x="47" y="708" type="line"/>
      <point x="47" y="720" type="line"/>
      <point x="137" y="720" type="line"/>
      <point x="137" y="12" type="line"/>
      <point x="220" y="12" type="line"/>
    </contour>
  </outline>
</glyph>
<glyph name="two" format="1">
  <advance width="358"/>
  <unicode hex="0032"/>
  <outline>
    <contour>
      <point x="306" y="0" type="line"/>
      <point x="51" y="0" type="line"/>
      <point x="51" y="10" type="line"/>
      <point x="293" y="474" type="line"/>
      <point x="293" y="676" type="line"/>
      <point x="261" y="703"/>
      <point x="220" y="714"/>
      <point x="180" y="714" type="curve" smooth="yes"/>
      <point x="140" y="714"/>
      <point x="98" y="703"/>
      <point x="66" y="676" type="curve"/>
      <point x="66" y="493" type="line"/>
      <point x="53" y="493" type="line"/>
      <point x="53" y="684" type="line"/>
      <point x="90" y="715"/>
      <point x="136" y="726"/>
      <point x="180" y="726" type="curve" smooth="yes"/>
      <point x="223" y="726"/>
      <point x="270" y="715"/>
      <point x="306" y="684" type="curve"/>
      <point x="306" y="472" type="line"/>
      <point x="68" y="12" type="line"/>
      <point x="69" y="12" type="line"/>
      <point x="306" y="12" type="line"/>
    </contour>
  </outline>
</glyph>
<glyph name="three" format="1">
  <advance width="391"/>
  <unicode hex="0033"/>
  <outline>
    <contour>
      <point x="325" y="36" type="line"/>
      <point x="289" y="5"/>
      <point x="237" y="-6"/>
      <point x="194" y="-6" type="curve" smooth="yes"/>
      <point x="150" y="-6"/>
      <point x="99" y="5"/>
      <point x="62" y="36" type="curve"/>
      <point x="62" y="227" type="line"/>
      <point x="75" y="227" type="line"/>
      <point x="75" y="44" type="line"/>
      <point x="107" y="17"/>
      <point x="154" y="6"/>
      <point x="194" y="6" type="curve" smooth="yes"/>
      <point x="234" y="6"/>
      <point x="280" y="17"/>
      <point x="312" y="44" type="curve"/>
      <point x="312" y="321" type="line"/>
      <point x="279" y="355"/>
      <point x="238" y="366"/>
      <point x="198" y="366" type="curve" smooth="yes"/>
      <point x="158" y="366" type="line"/>
      <point x="158" y="377" type="line"/>
      <point x="194" y="377" type="line" smooth="yes"/>
      <point x="237" y="377"/>
      <point x="282" y="389"/>
      <point x="311" y="422" type="curve"/>
      <point x="311" y="676" type="line"/>
      <point x="279" y="703"/>
      <point x="233" y="714"/>
      <point x="193" y="714" type="curve" smooth="yes"/>
      <point x="153" y="714"/>
      <point x="107" y="703"/>
      <point x="75" y="676" type="curve"/>
      <point x="75" y="493" type="line"/>
      <point x="62" y="493" type="line"/>
      <point x="62" y="684" type="line"/>
      <point x="99" y="715"/>
      <point x="150" y="726"/>
      <point x="193" y="726" type="curve" smooth="yes"/>
      <point x="237" y="726"/>
      <point x="287" y="715"/>
      <point x="324" y="684" type="curve"/>
      <point x="324" y="418" type="line"/>
      <point x="299" y="391"/>
      <point x="263" y="375"/>
      <point x="234" y="372" type="curve"/>
      <point x="263" y="368"/>
      <point x="298" y="354"/>
      <point x="325" y="325" type="curve"/>
    </contour>
  </outline>
</glyph>
<glyph name="four" format="1">
  <advance width="394"/>
  <unicode hex="0034"/>
  <outline>
    <contour>
      <point x="322" y="0" type="line"/>
      <point x="309" y="0" type="line"/>
      <point x="309" y="248" type="line"/>
      <point x="67" y="248" type="line"/>
      <point x="67" y="720" type="line"/>
      <point x="80" y="720" type="line"/>
      <point x="80" y="260" type="line"/>
      <point x="309" y="260" type="line"/>
      <point x="309" y="720" type="line"/>
      <point x="322" y="720" type="line"/>
    </contour>
  </outline>
</glyph>
<glyph name="five" format="1">
  <advance width="389"/>
  <unicode hex="0035"/>
  <outline>
    <contour>
      <point x="330" y="36" type="line"/>
      <point x="294" y="5"/>
      <point x="242" y="-6"/>
      <point x="199" y="-6" type="curve" smooth="yes"/>
      <point x="155" y="-6"/>
      <point x="104" y="5"/>
      <point x="67" y="36" type="curve"/>
      <point x="67" y="227" type="line"/>
      <point x="80" y="227" type="line"/>
      <point x="80" y="44" type="line"/>
      <point x="112" y="17"/>
      <point x="159" y="6"/>
      <point x="199" y="6" type="curve" smooth="yes"/>
      <point x="239" y="6"/>
      <point x="285" y="17"/>
      <point x="317" y="44" type="curve"/>
      <point x="317" y="343" type="line"/>
      <point x="285" y="373"/>
      <point x="244" y="381"/>
      <point x="200" y="381" type="curve" smooth="yes"/>
      <point x="70" y="381" type="line"/>
      <point x="70" y="720" type="line"/>
      <point x="330" y="720" type="line"/>
      <point x="330" y="708" type="line"/>
      <point x="83" y="708" type="line"/>
      <point x="83" y="393" type="line"/>
      <point x="201" y="393" type="line" smooth="yes"/>
      <point x="252" y="393"/>
      <point x="295" y="382"/>
      <point x="330" y="350" type="curve"/>
    </contour>
  </outline>
</glyph>
<glyph name="six" format="1">
  <advance width="393"/>
  <unicode hex="0036"/>
  <outline>
    <contour>
      <point x="331" y="36" type="line"/>
      <point x="294" y="5"/>
      <point x="241" y="-6"/>
      <point x="198" y="-6" type="curve" smooth="yes"/>
      <point x="154" y="-6"/>
      <point x="101" y="5"/>
      <point x="64" y="36" type="curve"/>
      <point x="64" y="684" type="line"/>
      <point x="101" y="715"/>
      <point x="154" y="726"/>
      <point x="198" y="726" type="curve" smooth="yes"/>
      <point x="241" y="726"/>
      <point x="294" y="715"/>
      <point x="331" y="684" type="curve"/>
      <point x="331" y="493" type="line"/>
      <point x="318" y="493" type="line"/>
      <point x="318" y="676" type="line"/>
      <point x="286" y="703"/>
      <point x="238" y="714"/>
      <point x="198" y="714" type="curve" smooth="yes"/>
      <point x="158" y="714"/>
      <point x="109" y="703"/>
      <point x="77" y="676" type="curve"/>
      <point x="77" y="359" type="line"/>
      <point x="107" y="380"/>
      <point x="154" y="392"/>
      <point x="199" y="392" type="curve" smooth="yes"/>
      <point x="241" y="392"/>
      <point x="301" y="379"/>
      <point x="331" y="351" type="curve"/>
    </contour>
    <contour>
      <point x="318" y="44" type="curve"/>
      <point x="318" y="344" type="line"/>
      <point x="288" y="371"/>
      <point x="238" y="380"/>
      <point x="198" y="380" type="curve" smooth="yes"/>
      <point x="153" y="380"/>
      <point x="110" y="369"/>
      <point x="77" y="346" type="curve"/>
      <point x="77" y="44" type="line"/>
      <point x="109" y="17"/>
      <point x="158" y="6"/>
      <point x="198" y="6" type="curve" smooth="yes"/>
      <point x="238" y="6"/>
      <point x="286" y="17"/>
    </contour>
  </outline>
</glyph>
<glyph name="seven" format="1">
  <advance width="320"/>
  <unicode hex="0037"/>
  <outline>
    <contour>
      <point x="277" y="710" type="line"/>
      <point x="114" y="0" type="line"/>
      <point x="100" y="0" type="line"/>
      <point x="263" y="708" type="line"/>
      <point x="32" y="708" type="line"/>
      <point x="32" y="720" type="line"/>
      <point x="277" y="720" type="line"/>
    </contour>
  </outline>
</glyph>
<glyph name="eight" format="1">
  <advance width="411"/>
  <unicode hex="0038"/>
  <outline>
    <contour>
      <point x="337" y="35" type="line"/>
      <point x="294" y="4"/>
      <point x="252" y="-6"/>
      <point x="201" y="-6" type="curve" smooth="yes"/>
      <point x="149" y="-6"/>
      <point x="107" y="4"/>
      <point x="64" y="35" type="curve"/>
      <point x="64" y="331" type="line"/>
      <point x="95" y="356"/>
      <point x="132" y="367"/>
      <point x="165" y="371" type="curve"/>
      <point x="132" y="376"/>
      <point x="95" y="388"/>
      <point x="67" y="412" type="curve"/>
      <point x="67" y="685" type="line"/>
      <point x="110" y="716"/>
      <point x="154" y="726"/>
      <point x="201" y="726" type="curve" smooth="yes"/>
      <point x="248" y="726"/>
      <point x="292" y="716"/>
      <point x="335" y="685" type="curve"/>
      <point x="335" y="412" type="line"/>
      <point x="307" y="388"/>
      <point x="270" y="376"/>
      <point x="237" y="371" type="curve"/>
      <point x="270" y="367"/>
      <point x="307" y="356"/>
      <point x="337" y="331" type="curve"/>
    </contour>
    <contour>
      <point x="322" y="417" type="curve"/>
      <point x="322" y="678" type="line"/>
      <point x="283" y="706"/>
      <point x="242" y="714"/>
      <point x="201" y="714" type="curve" smooth="yes"/>
      <point x="160" y="714"/>
      <point x="118" y="706"/>
      <point x="80" y="678" type="curve"/>
      <point x="80" y="417" type="line"/>
      <point x="111" y="389"/>
      <point x="166" y="378"/>
      <point x="201" y="378" type="curve" smooth="yes"/>
      <point x="235" y="378"/>
      <point x="291" y="389"/>
    </contour>
    <contour>
      <point x="324" y="42" type="curve"/>
      <point x="324" y="326" type="line"/>
      <point x="289" y="354"/>
      <point x="237" y="365"/>
      <point x="201" y="365" type="curve" smooth="yes"/>
      <point x="165" y="365"/>
      <point x="113" y="354"/>
      <point x="77" y="326" type="curve"/>
      <point x="77" y="42" type="line"/>
      <point x="116" y="14"/>
      <point x="155" y="6"/>
      <point x="201" y="6" type="curve" smooth="yes"/>
      <point x="246" y="6"/>
      <point x="286" y="14"/>
    </contour>
  </outline>
</glyph>
<glyph name="nine" format="1">
  <advance width="393"/>
  <unicode hex="0039"/>
  <outline>
    <contour>
      <point x="329" y="36" type="line"/>
      <point x="293" y="5"/>
      <point x="239" y="-6"/>
      <point x="196" y="-6" type="curve" smooth="yes"/>
      <point x="152" y="-6"/>
      <point x="99" y="5"/>
      <point x="63" y="36" type="curve"/>
      <point x="63" y="227" type="line"/>
      <point x="76" y="227" type="line"/>
      <point x="76" y="44" type="line"/>
      <point x="108" y="17"/>
      <point x="156" y="6"/>
      <point x="196" y="6" type="curve" smooth="yes"/>
      <point x="236" y="6"/>
      <point x="284" y="17"/>
      <point x="316" y="44" type="curve"/>
      <point x="316" y="361" type="line"/>
      <point x="287" y="340"/>
      <point x="239" y="328"/>
      <point x="195" y="328" type="curve" smooth="yes"/>
      <point x="152" y="328"/>
      <point x="92" y="341"/>
      <point x="63" y="369" type="curve"/>
      <point x="63" y="684" type="line"/>
      <point x="99" y="715"/>
      <point x="152" y="726"/>
      <point x="196" y="726" type="curve" smooth="yes"/>
      <point x="239" y="726"/>
      <point x="293" y="715"/>
      <point x="329" y="684" type="curve"/>
    </contour>
    <contour>
      <point x="316" y="374" type="curve"/>
      <point x="316" y="676" type="line"/>
      <point x="284" y="703"/>
      <point x="236" y="714"/>
      <point x="196" y="714" type="curve" smooth="yes"/>
      <point x="156" y="714"/>
      <point x="108" y="703"/>
      <point x="76" y="676" type="curve"/>
      <point x="76" y="376" type="line"/>
      <point x="106" y="349"/>
      <point x="155" y="340"/>
      <point x="196" y="340" type="curve" smooth="yes"/>
      <point x="241" y="340"/>
      <point x="284" y="351"/>
    </contour>
  </outline>
</glyph>
<glyph name="colon" format="1">
  <advance width="126"/>
  <unicode hex="003A"/>
  <outline>
    <contour>
      <point x="69" y="384" type="line"/>
      <point x="56" y="384" type="line"/>
      <point x="56" y="480" type="line"/>
      <point x="69" y="480" type="line"/>
    </contour>
    <contour>
      <point x="69" y="0" type="line"/>
      <point x="56" y="0" type="line"/>
      <point x="56" y="96" type="line"/>
      <point x="69" y="96" type="line"/>
    </contour>
  </outline>
</glyph>
<glyph name="semicolon" format="1">
  <advance width="126"/>
  <unicode hex="003B"/>
  <outline>
    <contour>
      <point x="69" y="384" type="line"/>
      <point x="56" y="384" type="line"/>
      <point x="56" y="480" type="line"/>
      <point x="69" y="480" type="line"/>
    </contour>
    <contour>
      <point x="76" y="96" type="line"/>
      <point x="54" y="-57" type="line"/>
      <point x="41" y="-57" type="line"/>
      <point x="63" y="96" type="line"/>
    </contour>
  </outline>
</glyph>
<glyph name="less" format="1">
  <advance width="252"/>
  <unicode hex="003C"/>
  <outline>
    <contour>
      <point x="218" y="128" type="line"/>
      <point x="27" y="362" type="line"/>
      <point x="27" y="372" type="line"/>
      <point x="218" y="606" type="line"/>
      <point x="218" y="588" type="line"/>
      <point x="37" y="367" type="line"/>
      <point x="218" y="146" type="line"/>
    </contour>
  </outline>
</glyph>
<glyph name="equal" format="1">
  <advance width="258"/>
  <unicode hex="003D"/>
  <outline>
    <contour>
      <point x="219" y="440" type="line"/>
      <point x="39" y="440" type="line"/>
      <point x="39" y="452" type="line"/>
      <point x="219" y="452" type="line"/>
    </contour>
    <contour>
      <point x="219" y="290" type="line"/>
      <point x="39" y="290" type="line"/>
      <point x="39" y="302" type="line"/>
      <point x="219" y="302" type="line"/>
    </contour>
  </outline>
</glyph>
<glyph name="greater" format="1">
  <advance width="252"/>
  <unicode hex="003E"/>
  <outline>
    <contour>
      <point x="225" y="362" type="line"/>
      <point x="34" y="128" type="line"/>
      <point x="34" y="146" type="line"/>
      <point x="215" y="367" type="line"/>
      <point x="34" y="588" type="line"/>
      <point x="34" y="606" type="line"/>
      <point x="225" y="372" type="line"/>
    </contour>
  </outline>
</glyph>
<glyph name="question" format="1">
  <advance width="340"/>
  <unicode hex="003F"/>
  <outline>
    <contour>
      <point x="296" y="472" type="line"/>
      <point x="177" y="308" type="line"/>
      <point x="177" y="174" type="line"/>
      <point x="164" y="174" type="line"/>
      <point x="164" y="310" type="line"/>
      <point x="283" y="474" type="line"/>
      <point x="283" y="676" type="line"/>
      <point x="251" y="703"/>
      <point x="209" y="714"/>
      <point x="169" y="714" type="curve" smooth="yes"/>
      <point x="129" y="714"/>
      <point x="88" y="703"/>
      <point x="56" y="676" type="curve"/>
      <point x="56" y="493" type="line"/>
      <point x="43" y="493" type="line"/>
      <point x="43" y="684" type="line"/>
      <point x="79" y="715"/>
      <point x="126" y="726"/>
      <point x="169" y="726" type="curve" smooth="yes"/>
      <point x="213" y="726"/>
      <point x="259" y="715"/>
      <point x="296" y="684" type="curve"/>
    </contour>
    <contour>
      <point x="177" y="0" type="line"/>
      <point x="164" y="0" type="line"/>
      <point x="164" y="96" type="line"/>
      <point x="177" y="96" type="line"/>
    </contour>
  </outline>
</glyph>
<glyph name="at" format="1">
  <advance width="492"/>
  <unicode hex="0040"/>
  <outline>
    <contour>
      <point x="427" y="50" type="line"/>
      <point x="381" y="11"/>
      <point x="314" y="-6"/>
      <point x="246" y="-6" type="curve" smooth="yes"/>
      <point x="178" y="-6"/>
      <point x="111" y="11"/>
      <point x="64" y="50" type="curve"/>
      <point x="64" y="670" type="line"/>
      <point x="111" y="709"/>
      <point x="178" y="726"/>
      <point x="246" y="726" type="curve" smooth="yes"/>
      <point x="314" y="726"/>
      <point x="381" y="709"/>
      <point x="427" y="670" type="curve"/>
      <point x="427" y="360" type="line"/>
      <point x="324" y="360" type="line"/>
      <point x="324" y="139" type="line"/>
      <point x="303" y="124"/>
      <point x="276" y="117"/>
      <point x="246" y="117" type="curve" smooth="yes"/>
      <point x="216" y="117"/>
      <point x="188" y="124"/>
      <point x="168" y="139" type="curve"/>
      <point x="168" y="581" type="line"/>
      <point x="188" y="596"/>
      <point x="216" y="603"/>
      <point x="246" y="603" type="curve" smooth="yes"/>
      <point x="276" y="603"/>
      <point x="303" y="596"/>
      <point x="324" y="581" type="curve"/>
      <point x="324" y="372" type="line"/>
      <point x="414" y="372" type="line"/>
      <point x="414" y="664" type="line"/>
      <point x="370" y="700"/>
      <point x="304" y="714"/>
      <point x="246" y="714" type="curve" smooth="yes"/>
      <point x="188" y="714"/>
      <point x="121" y="700"/>
      <point x="77" y="664" type="curve"/>
      <point x="77" y="56" type="line"/>
      <point x="121" y="20"/>
      <point x="188" y="6"/>
      <point x="246" y="6" type="curve" smooth="yes"/>
      <point x="304" y="6"/>
      <point x="370" y="20"/>
      <point x="414" y="56" type="curve"/>
      <point x="414" y="227" type="line"/>
      <point x="427" y="227" type="line"/>
    </contour>
    <contour>
      <point x="311" y="146" type="curve"/>
      <point x="311" y="574" type="line"/>
      <point x="295" y="586"/>
      <point x="272" y="591"/>
      <point x="246" y="591" type="curve" smooth="yes"/>
      <point x="219" y="591"/>
      <point x="196" y="586"/>
      <point x="181" y="574" type="curve"/>
      <point x="181" y="146" type="line"/>
      <point x="197" y="134"/>
      <point x="219" y="129"/>
      <point x="246" y="129" type="curve" smooth="yes"/>
      <point x="272" y="129"/>
      <point x="295" y="134"/>
    </contour>
  </outline>
</glyph>
<glyph name="A" format="1">
  <advance width="421"/>
  <unicode hex="0041"/>
  <outline>
    <contour>
      <point x="352" y="0" type="line"/>
      <point x="339" y="0" type="line"/>
      <point x="339" y="341" type="line"/>
      <point x="82" y="341" type="line"/>
      <point x="82" y="0" type="line"/>
      <point x="69" y="0" type="line"/>
      <point x="69" y="681" type="line"/>
      <point x="113" y="713"/>
      <point x="161" y="726"/>
      <point x="211" y="726" type="curve" smooth="yes"/>
      <point x="260" y="726"/>
      <point x="309" y="713"/>
      <point x="352" y="681" type="curve"/>
    </contour>
    <contour>
      <point x="339" y="353" type="line"/>
      <point x="339" y="674" type="line"/>
      <point x="299" y="703"/>
      <point x="256" y="714"/>
      <point x="211" y="714" type="curve" smooth="yes"/>
      <point x="165" y="714"/>
      <point x="123" y="703"/>
      <point x="82" y="674" type="curve"/>
      <point x="82" y="353" type="line"/>
    </contour>
  </outline>
</glyph>
<glyph name="B" format="1">
  <advance width="393"/>
  <unicode hex="0042"/>
  <outline>
    <contour>
      <point x="336" y="56" type="line"/>
      <point x="299" y="13"/>
      <point x="253" y="0"/>
      <point x="201" y="0" type="curve" smooth="yes"/>
      <point x="72" y="0" type="line"/>
      <point x="72" y="720" type="line"/>
      <point x="199" y="720" type="line" smooth="yes"/>
      <point x="253" y="720"/>
      <point x="297" y="708"/>
      <point x="334" y="664" type="curve"/>
      <point x="334" y="418" type="line"/>
      <point x="309" y="391"/>
      <point x="274" y="375"/>
      <point x="245" y="372" type="curve"/>
      <point x="274" y="368"/>
      <point x="309" y="354"/>
      <point x="336" y="325" type="curve"/>
    </contour>
    <contour>
      <point x="321" y="422" type="curve"/>
      <point x="321" y="658" type="line"/>
      <point x="287" y="698"/>
      <point x="244" y="708"/>
      <point x="199" y="708" type="curve" smooth="yes"/>
      <point x="85" y="708" type="line"/>
      <point x="85" y="377" type="line"/>
      <point x="205" y="377" type="line" smooth="yes"/>
      <point x="248" y="377"/>
      <point x="292" y="389"/>
    </contour>
    <contour>
      <point x="323" y="61" type="curve"/>
      <point x="323" y="321" type="line"/>
      <point x="290" y="355"/>
      <point x="249" y="366"/>
      <point x="209" y="366" type="curve" smooth="yes"/>
      <point x="85" y="366" type="line"/>
      <point x="85" y="12" type="line"/>
      <point x="201" y="12" type="line" smooth="yes"/>
      <point x="246" y="12"/>
      <point x="290" y="22"/>
    </contour>
  </outline>
</glyph>
<glyph name="C" format="1">
  <advance width="416"/>
  <unicode hex="0043"/>
  <outline>
    <contour>
      <point x="352" y="41" type="line"/>
      <point x="309" y="7"/>
      <point x="258" y="-6"/>
      <point x="208" y="-6" type="curve" smooth="yes"/>
      <point x="159" y="-6"/>
      <point x="108" y="7"/>
      <point x="64" y="41" type="curve"/>
      <point x="64" y="679" type="line"/>
      <point x="108" y="713"/>
      <point x="159" y="726"/>
      <point x="208" y="726" type="curve" smooth="yes"/>
      <point x="258" y="726"/>
      <point x="309" y="713"/>
      <point x="352" y="679" type="curve"/>
      <point x="352" y="493" type="line"/>
      <point x="339" y="493" type="line"/>
      <point x="339" y="672" type="line"/>
      <point x="299" y="703"/>
      <point x="254" y="714"/>
      <point x="208" y="714" type="curve" smooth="yes"/>
      <point x="163" y="714"/>
      <point x="118" y="703"/>
      <point x="77" y="672" type="curve"/>
      <point x="77" y="48" type="line"/>
      <point x="117" y="17"/>
      <point x="163" y="6"/>
      <point x="208" y="6" type="curve" smooth="yes"/>
      <point x="254" y="6"/>
      <point x="299" y="17"/>
      <point x="339" y="48" type="curve"/>
      <point x="339" y="227" type="line"/>
      <point x="352" y="227" type="line"/>
    </contour>
  </outline>
</glyph>
<glyph name="D" format="1">
  <advance width="420"/>
  <unicode hex="0044"/>
  <outline>
    <contour>
      <point x="356" y="68" type="line"/>
      <point x="318" y="24"/>
      <point x="267" y="0"/>
      <point x="183" y="0" type="curve" smooth="yes"/>
      <point x="72" y="0" type="line"/>
      <point x="72" y="720" type="line"/>
      <point x="183" y="720" type="line" smooth="yes"/>
      <point x="267" y="720"/>
      <point x="318" y="696"/>
      <point x="356" y="652" type="curve"/>
    </contour>
    <contour>
      <point x="343" y="74" type="curve"/>
      <point x="343" y="646" type="line"/>
      <point x="309" y="686"/>
      <point x="260" y="708"/>
      <point x="183" y="708" type="curve" smooth="yes"/>
      <point x="85" y="708" type="line"/>
      <point x="85" y="12" type="line"/>
      <point x="183" y="12" type="line" smooth="yes"/>
      <point x="260" y="12"/>
      <point x="309" y="34"/>
    </contour>
  </outline>
</glyph>
<glyph name="E" format="1">
  <advance width="416"/>
  <unicode hex="0045"/>
  <outline>
    <contour>
      <point x="352" y="37" type="line"/>
      <point x="309" y="6"/>
      <point x="258" y="-6"/>
      <point x="208" y="-6" type="curve" smooth="yes"/>
      <point x="159" y="-6"/>
      <point x="108" y="6"/>
      <point x="64" y="37" type="curve"/>
      <point x="64" y="683" type="line"/>
      <point x="108" y="714"/>
      <point x="159" y="726"/>
      <point x="208" y="726" type="curve" smooth="yes"/>
      <point x="258" y="726"/>
      <point x="309" y="714"/>
      <point x="352" y="683" type="curve"/>
      <point x="352" y="493" type="line"/>
      <point x="339" y="493" type="line"/>
      <point x="339" y="676" type="line"/>
      <point x="299" y="704"/>
      <point x="254" y="714"/>
      <point x="208" y="714" type="curve" smooth="yes"/>
      <point x="163" y="714"/>
      <point x="118" y="704"/>
      <point x="77" y="676" type="curve"/>
      <point x="77" y="377" type="line"/>
      <point x="259" y="377" type="line"/>
      <point x="259" y="365" type="line"/>
      <point x="77" y="365" type="line"/>
      <point x="77" y="44" type="line"/>
      <point x="117" y="16"/>
      <point x="163" y="6"/>
      <point x="208" y="6" type="curve" smooth="yes"/>
      <point x="254" y="6"/>
      <point x="299" y="16"/>
      <point x="339" y="44" type="curve"/>
      <point x="339" y="227" type="line"/>
      <point x="352" y="227" type="line"/>
    </contour>
  </outline>
</glyph>
<glyph name="F" format="1">
  <advance width="384"/>
  <unicode hex="0046"/>
  <outline>
    <contour>
      <point x="337" y="493" type="line"/>
      <point x="324" y="493" type="line"/>
      <point x="324" y="678" type="line"/>
      <point x="284" y="706"/>
      <point x="240" y="714"/>
      <point x="201" y="714" type="curve" smooth="yes"/>
      <point x="162" y="714"/>
      <point x="118" y="706"/>
      <point x="77" y="678" type="curve"/>
      <point x="77" y="364" type="line"/>
      <point x="254" y="364" type="line"/>
      <point x="254" y="352" type="line"/>
      <point x="77" y="352" type="line"/>
      <point x="77" y="0" type="line"/>
      <point x="64" y="0" type="line"/>
      <point x="64" y="685" type="line"/>
      <point x="108" y="716"/>
      <point x="156" y="726"/>
      <point x="201" y="726" type="curve" smooth="yes"/>
      <point x="246" y="726"/>
      <point x="294" y="716"/>
      <point x="337" y="685" type="curve"/>
    </contour>
  </outline>
</glyph>
<glyph name="G" format="1">
  <advance width="421"/>
  <unicode hex="0047"/>
  <outline>
    <contour>
      <point x="357" y="41" type="line"/>
      <point x="314" y="7"/>
      <point x="260" y="-6"/>
      <point x="211" y="-6" type="curve" smooth="yes"/>
      <point x="161" y="-6"/>
      <point x="108" y="7"/>
      <point x="64" y="41" type="curve"/>
      <point x="64" y="679" type="line"/>
      <point x="108" y="713"/>
      <point x="161" y="726"/>
      <point x="211" y="726" type="curve" smooth="yes"/>
      <point x="260" y="726"/>
      <point x="314" y="713"/>
      <point x="357" y="679" type="curve"/>
      <point x="357" y="493" type="line"/>
      <point x="344" y="493" type="line"/>
      <point x="344" y="672" type="line"/>
      <point x="304" y="703"/>
      <point x="256" y="714"/>
      <point x="211" y="714" type="curve" smooth="yes"/>
      <point x="165" y="714"/>
      <point x="118" y="703"/>
      <point x="77" y="672" type="curve"/>
      <point x="77" y="48" type="line"/>
      <point x="117" y="17"/>
      <point x="165" y="6"/>
      <point x="211" y="6" type="curve" smooth="yes"/>
      <point x="256" y="6"/>
      <point x="304" y="17"/>
      <point x="344" y="48" type="curve"/>
      <point x="344" y="350" type="line"/>
      <point x="237" y="350" type="line"/>
      <point x="237" y="362" type="line"/>
      <point x="357" y="362" type="line"/>
    </contour>
  </outline>
</glyph>
<glyph name="H" format="1">
  <advance width="429"/>
  <unicode hex="0048"/>
  <outline>
    <contour>
      <point x="357" y="0" type="line"/>
      <point x="344" y="0" type="line"/>
      <point x="344" y="365" type="line"/>
      <point x="85" y="365" type="line"/>
      <point x="85" y="0" type="line"/>
      <point x="72" y="0" type="line"/>
      <point x="72" y="720" type="line"/>
      <point x="85" y="720" type="line"/>
      <point x="85" y="377" type="line"/>
      <point x="344" y="377" type="line"/>
      <point x="344" y="720" type="line"/>
      <point x="357" y="720" type="line"/>
    </contour>
  </outline>
</glyph>
<glyph name="I" format="1">
  <advance width="163"/>
  <unicode hex="0049"/>
  <outline>
    <contour>
      <point x="88" y="0" type="line"/>
      <point x="75" y="0" type="line"/>
      <point x="75" y="720" type="line"/>
      <point x="88" y="720" type="line"/>
    </contour>
  </outline>
</glyph>
<glyph name="J" format="1">
  <advance width="256"/>
  <unicode hex="004A"/>
  <outline>
    <contour>
      <point x="187" y="56" type="line"/>
      <point x="150" y="13"/>
      <point x="104" y="0"/>
      <point x="52" y="0" type="curve" smooth="yes"/>
      <point x="42" y="0" type="line"/>
      <point x="42" y="12" type="line"/>
      <point x="52" y="12" type="line" smooth="yes"/>
      <point x="97" y="12"/>
      <point x="141" y="22"/>
      <point x="174" y="61" type="curve"/>
      <point x="174" y="720" type="line"/>
      <point x="187" y="720" type="line"/>
    </contour>
  </outline>
</glyph>
<glyph name="K" format="1">
  <advance width="414"/>
  <unicode hex="004B"/>
  <outline>
    <contour>
      <point x="346" y="0" type="line"/>
      <point x="333" y="0" type="line"/>
      <point x="333" y="321" type="line"/>
      <point x="300" y="355"/>
      <point x="259" y="366"/>
      <point x="219" y="366" type="curve" smooth="yes"/>
      <point x="85" y="366" type="line"/>
      <point x="85" y="0" type="line"/>
      <point x="72" y="0" type="line"/>
      <point x="72" y="720" type="line"/>
      <point x="85" y="720" type="line"/>
      <point x="85" y="377" type="line"/>
      <point x="215" y="377" type="line" smooth="yes"/>
      <point x="258" y="377"/>
      <point x="302" y="389"/>
      <point x="331" y="422" type="curve"/>
      <point x="331" y="720" type="line"/>
      <point x="344" y="720" type="line"/>
      <point x="344" y="418" type="line"/>
      <point x="319" y="391"/>
      <point x="284" y="375"/>
      <point x="255" y="372" type="curve"/>
      <point x="284" y="368"/>
      <point x="319" y="354"/>
      <point x="346" y="325" type="curve"/>
    </contour>
  </outline>
</glyph>
<glyph name="L" format="1">
  <advance width="339"/>
  <unicode hex="004C"/>
  <outline>
    <contour>
      <point x="301" y="0" type="line"/>
      <point x="72" y="0" type="line"/>
      <point x="72" y="720" type="line"/>
      <point x="85" y="720" type="line"/>
      <point x="85" y="12" type="line"/>
      <point x="301" y="12" type="line"/>
    </contour>
  </outline>
</glyph>
<glyph name="M" format="1">
  <advance width="526"/>
  <unicode hex="004D"/>
  <outline>
    <contour>
      <point x="457" y="0" type="line"/>
      <point x="444" y="0" type="line"/>
      <point x="444" y="674" type="line"/>
      <point x="397" y="702"/>
      <point x="331" y="713"/>
      <point x="270" y="714" type="curve"/>
      <point x="270" y="0" type="line"/>
      <point x="257" y="0" type="line"/>
      <point x="257" y="714" type="line"/>
      <point x="195" y="713"/>
      <point x="129" y="702"/>
      <point x="82" y="674" type="curve"/>
      <point x="82" y="0" type="line"/>
      <point x="69" y="0" type="line"/>
      <point x="69" y="681" type="line"/>
      <point x="123" y="712"/>
      <point x="192" y="726"/>
      <point x="263" y="726" type="curve" smooth="yes"/>
      <point x="335" y="726"/>
      <point x="404" y="712"/>
      <point x="457" y="681" type="curve"/>
    </contour>
  </outline>
</glyph>
<glyph name="N" format="1">
  <advance width="431"/>
  <unicode hex="004E"/>
  <outline>
    <contour>
      <point x="362" y="0" type="line"/>
      <point x="349" y="0" type="line"/>
      <point x="349" y="667" type="line"/>
      <point x="309" y="702"/>
      <point x="261" y="714"/>
      <point x="216" y="714" type="curve" smooth="yes"/>
      <point x="170" y="714"/>
      <point x="123" y="702"/>
      <point x="82" y="667" type="curve"/>
      <point x="82" y="0" type="line"/>
      <point x="69" y="0" type="line"/>
      <point x="69" y="674" type="line"/>
      <point x="113" y="711"/>
      <point x="166" y="726"/>
      <point x="216" y="726" type="curve" smooth="yes"/>
      <point x="265" y="726"/>
      <point x="319" y="711"/>
      <point x="362" y="674" type="curve"/>
    </contour>
  </outline>
</glyph>
<glyph name="O" format="1">
  <advance width="431"/>
  <unicode hex="004F"/>
  <outline>
    <contour>
      <point x="367" y="49" type="line"/>
      <point x="324" y="11"/>
      <point x="273" y="-6"/>
      <point x="216" y="-6" type="curve" smooth="yes"/>
      <point x="158" y="-6"/>
      <point x="108" y="11"/>
      <point x="64" y="49" type="curve"/>
      <point x="64" y="671" type="line"/>
      <point x="108" y="709"/>
      <point x="158" y="726"/>
      <point x="216" y="726" type="curve" smooth="yes"/>
      <point x="273" y="726"/>
      <point x="324" y="709"/>
      <point x="367" y="671" type="curve"/>
    </contour>
    <contour>
      <point x="354" y="55" type="curve"/>
      <point x="354" y="665" type="line"/>
      <point x="314" y="699"/>
      <point x="269" y="714"/>
      <point x="216" y="714" type="curve" smooth="yes"/>
      <point x="163" y="714"/>
      <point x="118" y="699"/>
      <point x="77" y="665" type="curve"/>
      <point x="77" y="55" type="line"/>
      <point x="118" y="21"/>
      <point x="163" y="6"/>
      <point x="216" y="6" type="curve" smooth="yes"/>
      <point x="269" y="6"/>
      <point x="314" y="21"/>
    </contour>
  </outline>
</glyph>
<glyph name="P" format="1">
  <advance width="368"/>
  <unicode hex="0050"/>
  <outline>
    <contour>
      <point x="321" y="389" type="line"/>
      <point x="284" y="346"/>
      <point x="241" y="333"/>
      <point x="187" y="333" type="curve" smooth="yes"/>
      <point x="85" y="333" type="line"/>
      <point x="85" y="0" type="line"/>
      <point x="72" y="0" type="line"/>
      <point x="72" y="720" type="line"/>
      <point x="187" y="720" type="line" smooth="yes"/>
      <point x="241" y="720"/>
      <point x="284" y="708"/>
      <point x="321" y="664" type="curve"/>
    </contour>
    <contour>
      <point x="308" y="395" type="curve"/>
      <point x="308" y="658" type="line"/>
      <point x="275" y="698"/>
      <point x="232" y="708"/>
      <point x="187" y="708" type="curve" smooth="yes"/>
      <point x="85" y="708" type="line"/>
      <point x="85" y="345" type="line"/>
      <point x="187" y="345" type="line" smooth="yes"/>
      <point x="233" y="345"/>
      <point x="275" y="356"/>
    </contour>
  </outline>
</glyph>
<glyph name="Q" format="1">
  <advance width="431"/>
  <unicode hex="0051"/>
  <outline>
    <contour>
      <point x="367" y="49" type="line"/>
      <point x="325" y="13"/>
      <point x="277" y="-4"/>
      <point x="222" y="-6" type="curve"/>
      <point x="222" y="-90" type="line"/>
      <point x="209" y="-90" type="line"/>
      <point x="209" y="-6" type="line"/>
      <point x="154" y="-4"/>
      <point x="106" y="13"/>
      <point x="64" y="49" type="curve"/>
      <point x="64" y="671" type="line"/>
      <point x="108" y="709"/>
      <point x="158" y="726"/>
      <point x="216" y="726" type="curve" smooth="yes"/>
      <point x="273" y="726"/>
      <point x="324" y="709"/>
      <point x="367" y="671" type="curve"/>
    </contour>
    <contour>
      <point x="354" y="55" type="curve"/>
      <point x="354" y="665" type="line"/>
      <point x="314" y="699"/>
      <point x="269" y="714"/>
      <point x="216" y="714" type="curve" smooth="yes"/>
      <point x="163" y="714"/>
      <point x="118" y="699"/>
      <point x="77" y="665" type="curve"/>
      <point x="77" y="55" type="line"/>
      <point x="116" y="22"/>
      <point x="159" y="7"/>
      <point x="209" y="6" type="curve"/>
      <point x="209" y="141" type="line"/>
      <point x="222" y="141" type="line"/>
      <point x="222" y="6" type="line"/>
      <point x="272" y="7"/>
      <point x="316" y="22"/>
    </contour>
  </outline>
</glyph>
<glyph name="R" format="1">
  <advance width="399"/>
  <unicode hex="0052"/>
  <outline>
    <contour>
      <point x="336" y="0" type="line"/>
      <point x="323" y="0" type="line"/>
      <point x="323" y="306" type="line"/>
      <point x="290" y="340"/>
      <point x="249" y="351"/>
      <point x="209" y="351" type="curve" smooth="yes"/>
      <point x="85" y="351" type="line"/>
      <point x="85" y="0" type="line"/>
      <point x="72" y="0" type="line"/>
      <point x="72" y="720" type="line"/>
      <point x="199" y="720" type="line" smooth="yes"/>
      <point x="253" y="720"/>
      <point x="297" y="708"/>
      <point x="334" y="664" type="curve"/>
      <point x="334" y="403" type="line"/>
      <point x="309" y="376"/>
      <point x="274" y="360"/>
      <point x="245" y="357" type="curve"/>
      <point x="274" y="354"/>
      <point x="309" y="339"/>
      <point x="336" y="310" type="curve"/>
    </contour>
    <contour>
      <point x="321" y="407" type="curve"/>
      <point x="321" y="658" type="line"/>
      <point x="287" y="698"/>
      <point x="244" y="708"/>
      <point x="199" y="708" type="curve" smooth="yes"/>
      <point x="85" y="708" type="line"/>
      <point x="85" y="363" type="line"/>
      <point x="205" y="363" type="line" smooth="yes"/>
      <point x="248" y="363"/>
      <point x="292" y="375"/>
    </contour>
  </outline>
</glyph>
<glyph name="S" format="1">
  <advance width="401"/>
  <unicode hex="0053"/>
  <outline>
    <contour>
      <point x="337" y="37" type="line"/>
      <point x="294" y="6"/>
      <point x="250" y="-6"/>
      <point x="201" y="-6" type="curve" smooth="yes"/>
      <point x="151" y="-6"/>
      <point x="108" y="6"/>
      <point x="64" y="37" type="curve"/>
      <point x="64" y="227" type="line"/>
      <point x="77" y="227" type="line"/>
      <point x="77" y="44" type="line"/>
      <point x="118" y="16"/>
      <point x="155" y="6"/>
      <point x="201" y="6" type="curve" smooth="yes"/>
      <point x="246" y="6"/>
      <point x="284" y="16"/>
      <point x="324" y="44" type="curve"/>
      <point x="324" y="264" type="line"/>
      <point x="66" y="446" type="line"/>
      <point x="66" y="683" type="line"/>
      <point x="109" y="714"/>
      <point x="151" y="726"/>
      <point x="201" y="726" type="curve" smooth="yes"/>
      <point x="250" y="726"/>
      <point x="292" y="714"/>
      <point x="336" y="683" type="curve"/>
      <point x="336" y="493" type="line"/>
      <point x="323" y="493" type="line"/>
      <point x="323" y="676" type="line"/>
      <point x="282" y="704"/>
      <point x="246" y="714"/>
      <point x="201" y="714" type="curve" smooth="yes"/>
      <point x="155" y="714"/>
      <point x="119" y="704"/>
      <point x="79" y="676" type="curve"/>
      <point x="79" y="451" type="line"/>
      <point x="337" y="269" type="line"/>
    </contour>
  </outline>
</glyph>
<glyph name="T" format="1">
  <advance width="353"/>
  <unicode hex="0054"/>
  <outline>
    <contour>
      <point x="323" y="708" type="line"/>
      <point x="183" y="708" type="line"/>
      <point x="183" y="0" type="line"/>
      <point x="170" y="0" type="line"/>
      <point x="170" y="708" type="line"/>
      <point x="30" y="708" type="line"/>
      <point x="30" y="720" type="line"/>
      <point x="323" y="720" type="line"/>
    </contour>
  </outline>
</glyph>
<glyph name="U" format="1">
  <advance width="431"/>
  <unicode hex="0055"/>
  <outline>
    <contour>
      <point x="362" y="46" type="line"/>
      <point x="319" y="9"/>
      <point x="265" y="-6"/>
      <point x="216" y="-6" type="curve" smooth="yes"/>
      <point x="166" y="-6"/>
      <point x="113" y="9"/>
      <point x="69" y="46" type="curve"/>
      <point x="69" y="720" type="line"/>
      <point x="82" y="720" type="line"/>
      <point x="82" y="53" type="line"/>
      <point x="123" y="18"/>
      <point x="170" y="6"/>
      <point x="216" y="6" type="curve" smooth="yes"/>
      <point x="261" y="6"/>
      <point x="309" y="18"/>
      <point x="349" y="53" type="curve"/>
      <point x="349" y="720" type="line"/>
      <point x="362" y="720" type="line"/>
    </contour>
  </outline>
</glyph>
<glyph name="V" format="1">
  <advance width="426"/>
  <unicode hex="0056"/>
  <outline>
    <contour>
      <point x="360" y="431" type="line"/>
      <point x="360" y="184"/>
      <point x="302" y="95"/>
      <point x="220" y="-2" type="curve"/>
      <point x="207" y="-2" type="line"/>
      <point x="124" y="95"/>
      <point x="67" y="184"/>
      <point x="67" y="431" type="curve" smooth="yes"/>
      <point x="67" y="720" type="line"/>
      <point x="80" y="720" type="line"/>
      <point x="80" y="431" type="line" smooth="yes"/>
      <point x="80" y="189"/>
      <point x="137" y="95"/>
      <point x="213" y="11" type="curve"/>
      <point x="290" y="95"/>
      <point x="347" y="189"/>
      <point x="347" y="431" type="curve" smooth="yes"/>
      <point x="347" y="720" type="line"/>
      <point x="360" y="720" type="line"/>
    </contour>
  </outline>
</glyph>
<glyph name="W" format="1">
  <advance width="526"/>
  <unicode hex="0057"/>
  <outline>
    <contour>
      <point x="457" y="39" type="line"/>
      <point x="404" y="8"/>
      <point x="335" y="-6"/>
      <point x="263" y="-6" type="curve" smooth="yes"/>
      <point x="192" y="-6"/>
      <point x="123" y="8"/>
      <point x="69" y="39" type="curve"/>
      <point x="69" y="720" type="line"/>
      <point x="82" y="720" type="line"/>
      <point x="82" y="46" type="line"/>
      <point x="129" y="18"/>
      <point x="195" y="7"/>
      <point x="257" y="6" type="curve"/>
      <point x="257" y="720" type="line"/>
      <point x="270" y="720" type="line"/>
      <point x="270" y="6" type="line"/>
      <point x="331" y="7"/>
      <point x="397" y="18"/>
      <point x="444" y="46" type="curve"/>
      <point x="444" y="720" type="line"/>
      <point x="457" y="720" type="line"/>
    </contour>
  </outline>
</glyph>
<glyph name="X" format="1">
  <advance width="395"/>
  <unicode hex="0058"/>
  <outline>
    <contour>
      <point x="327" y="0" type="line"/>
      <point x="314" y="0" type="line"/>
      <point x="314" y="324" type="line"/>
      <point x="284" y="354"/>
      <point x="245" y="365"/>
      <point x="197" y="365" type="curve" smooth="yes"/>
      <point x="149" y="365"/>
      <point x="111" y="354"/>
      <point x="80" y="324" type="curve"/>
      <point x="80" y="0" type="line"/>
      <point x="67" y="0" type="line"/>
      <point x="67" y="329" type="line"/>
      <point x="94" y="356"/>
      <point x="127" y="368"/>
      <point x="154" y="371" type="curve"/>
      <point x="127" y="374"/>
      <point x="94" y="388"/>
      <point x="70" y="414" type="curve"/>
      <point x="70" y="720" type="line"/>
      <point x="83" y="720" type="line"/>
      <point x="83" y="419" type="line"/>
      <point x="109" y="389"/>
      <point x="150" y="377"/>
      <point x="197" y="377" type="curve" smooth="yes"/>
      <point x="245" y="377"/>
      <point x="285" y="389"/>
      <point x="312" y="419" type="curve"/>
      <point x="312" y="720" type="line"/>
      <point x="325" y="720" type="line"/>
      <point x="325" y="414" type="line"/>
      <point x="301" y="388"/>
      <point x="267" y="374"/>
      <point x="240" y="371" type="curve"/>
      <point x="267" y="368"/>
      <point x="301" y="356"/>
      <point x="327" y="329" type="curve"/>
    </contour>
  </outline>
</glyph>
<glyph name="Y" format="1">
  <advance width="406"/>
  <unicode hex="0059"/>
  <outline>
    <contour>
      <point x="340" y="370" type="line"/>
      <point x="305" y="337"/>
      <point x="257" y="320"/>
      <point x="210" y="319" type="curve"/>
      <point x="210" y="0" type="line"/>
      <point x="197" y="0" type="line"/>
      <point x="197" y="319" type="line"/>
      <point x="149" y="320"/>
      <point x="101" y="337"/>
      <point x="67" y="370" type="curve"/>
      <point x="67" y="720" type="line"/>
      <point x="80" y="720" type="line"/>
      <point x="80" y="376" type="line"/>
      <point x="116" y="342"/>
      <point x="162" y="331"/>
      <point x="203" y="331" type="curve" smooth="yes"/>
      <point x="244" y="331"/>
      <point x="290" y="342"/>
      <point x="327" y="376" type="curve"/>
      <point x="327" y="720" type="line"/>
      <point x="340" y="720" type="line"/>
    </contour>
  </outline>
</glyph>
<glyph name="Z" format="1">
  <advance width="374"/>
  <unicode hex="005A"/>
  <outline>
    <contour>
      <point x="315" y="0" type="line"/>
      <point x="54" y="0" type="line"/>
      <point x="54" y="10" type="line"/>
      <point x="299" y="708" type="line"/>
      <point x="64" y="708" type="line"/>
      <point x="64" y="720" type="line"/>
      <point x="314" y="720" type="line"/>
      <point x="314" y="710" type="line"/>
      <point x="70" y="12" type="line"/>
      <point x="315" y="12" type="line"/>
    </contour>
  </outline>
</glyph>
<glyph name="bracketleft" format="1">
  <advance width="212"/>
  <unicode hex="005B"/>
  <outline>
    <contour>
      <point x="168" y="0" type="line"/>
      <point x="72" y="0" type="line"/>
      <point x="72" y="720" type="line"/>
      <point x="168" y="720" type="line"/>
      <point x="168" y="708" type="line"/>
      <point x="85" y="708" type="line"/>
      <point x="85" y="12" type="line"/>
      <point x="168" y="12" type="line"/>
    </contour>
  </outline>
</glyph>
<glyph name="backslash" format="1">
  <advance width="260"/>
  <unicode hex="005C"/>
  <outline>
    <contour>
      <point x="213" y="0" type="line"/>
      <point x="200" y="0" type="line"/>
      <point x="45" y="720" type="line"/>
      <point x="58" y="720" type="line"/>
    </contour>
  </outline>
</glyph>
<glyph name="bracketright" format="1">
  <advance width="212"/>
  <unicode hex="005D"/>
  <outline>
    <contour>
      <point x="140" y="0" type="line"/>
      <point x="44" y="0" type="line"/>
      <point x="44" y="12" type="line"/>
      <point x="127" y="12" type="line"/>
      <point x="127" y="708" type="line"/>
      <point x="44" y="708" type="line"/>
      <point x="44" y="720" type="line"/>
      <point x="140" y="720" type="line"/>
    </contour>
  </outline>
</glyph>
<glyph name="asciicircum" format="1">
  <advance width="312"/>
  <unicode hex="005E"/>
  <outline>
    <contour>
      <point x="267" y="350" type="line"/>
      <point x="254" y="350" type="line"/>
      <point x="156" y="687" type="line"/>
      <point x="58" y="350" type="line"/>
      <point x="45" y="350" type="line"/>
      <point x="151" y="724" type="line"/>
      <point x="161" y="724" type="line"/>
    </contour>
  </outline>
</glyph>
<glyph name="underscore" format="1">
  <advance width="294"/>
  <unicode hex="005F"/>
  <outline>
    <contour>
      <point x="292" y="-72" type="line"/>
      <point x="2" y="-72" type="line"/>
      <point x="2" y="-59" type="line"/>
      <point x="292" y="-59" type="line"/>
    </contour>
  </outline>
</glyph>
<glyph name="a" format="1">
  <advance width="301"/>
  <unicode hex="0061"/>
  <outline>
    <contour>
      <point x="250" y="26" type="line"/>
      <point x="222" y="3"/>
      <point x="184" y="-6"/>
      <point x="150" y="-6" type="curve" smooth="yes"/>
      <point x="115" y="-6"/>
      <point x="78" y="3"/>
      <point x="50" y="26" type="curve"/>
      <point x="50" y="255" type="line"/>
      <point x="78" y="273"/>
      <point x="114" y="282"/>
      <point x="149" y="282" type="curve" smooth="yes"/>
      <point x="184" y="282"/>
      <point x="212" y="274"/>
      <point x="237" y="261" type="curve"/>
      <point x="237" y="447" type="line"/>
      <point x="211" y="468"/>
      <point x="176" y="474"/>
      <point x="150" y="474" type="curve" smooth="yes"/>
      <point x="124" y="474"/>
      <point x="88" y="468"/>
      <point x="63" y="447" type="curve"/>
      <point x="63" y="352" type="line"/>
      <point x="50" y="352" type="line"/>
      <point x="50" y="454" type="line"/>
      <point x="78" y="477"/>
      <point x="115" y="486"/>
      <point x="150" y="486" type="curve" smooth="yes"/>
      <point x="184" y="486"/>
      <point x="222" y="477"/>
      <point x="250" y="454" type="curve"/>
    </contour>
    <contour>
      <point x="237" y="33" type="curve"/>
      <point x="237" y="248" type="line"/>
      <point x="210" y="263"/>
      <point x="183" y="270"/>
      <point x="150" y="270" type="curve" smooth="yes"/>
      <point x="124" y="270"/>
      <point x="88" y="265"/>
      <point x="63" y="247" type="curve"/>
      <point x="63" y="33" type="line"/>
      <point x="88" y="12"/>
      <point x="124" y="6"/>
      <point x="150" y="6" type="curve" smooth="yes"/>
      <point x="176" y="6"/>
      <point x="211" y="12"/>
    </contour>
  </outline>
</glyph>
<glyph name="b" format="1">
  <advance width="316"/>
  <unicode hex="0062"/>
  <outline>
    <contour>
      <point x="265" y="26" type="line"/>
      <point x="237" y="3"/>
      <point x="195" y="-6"/>
      <point x="160" y="-6" type="curve" smooth="yes"/>
      <point x="126" y="-6"/>
      <point x="83" y="3"/>
      <point x="55" y="26" type="curve"/>
      <point x="55" y="720" type="line"/>
      <point x="68" y="720" type="line"/>
      <point x="68" y="462" type="line"/>
      <point x="93" y="476"/>
      <point x="126" y="486"/>
      <point x="161" y="486" type="curve" smooth="yes"/>
      <point x="196" y="486"/>
      <point x="237" y="476"/>
      <point x="265" y="454" type="curve"/>
    </contour>
    <contour>
      <point x="252" y="33" type="curve"/>
      <point x="252" y="447" type="line"/>
      <point x="227" y="468"/>
      <point x="186" y="474"/>
      <point x="160" y="474" type="curve" smooth="yes"/>
      <point x="127" y="474"/>
      <point x="95" y="466"/>
      <point x="68" y="448" type="curve"/>
      <point x="68" y="33" type="line"/>
      <point x="94" y="12"/>
      <point x="134" y="6"/>
      <point x="160" y="6" type="curve" smooth="yes"/>
      <point x="186" y="6"/>
      <point x="227" y="12"/>
    </contour>
  </outline>
</glyph>
<glyph name="d" format="1">
  <advance width="316"/>
  <unicode hex="0064"/>
  <outline>
    <contour>
      <point x="261" y="26" type="line"/>
      <point x="233" y="3"/>
      <point x="191" y="-6"/>
      <point x="156" y="-6" type="curve" smooth="yes"/>
      <point x="122" y="-6"/>
      <point x="79" y="3"/>
      <point x="51" y="26" type="curve"/>
      <point x="51" y="454" type="line"/>
      <point x="79" y="476"/>
      <point x="120" y="486"/>
      <point x="155" y="486" type="curve" smooth="yes"/>
      <point x="190" y="486"/>
      <point x="224" y="476"/>
      <point x="248" y="462" type="curve"/>
      <point x="248" y="720" type="line"/>
      <point x="261" y="720" type="line"/>
    </contour>
    <contour>
      <point x="248" y="33" type="curve"/>
      <point x="248" y="448" type="line"/>
      <point x="221" y="466"/>
      <point x="190" y="474"/>
      <point x="156" y="474" type="curve" smooth="yes"/>
      <point x="130" y="474"/>
      <point x="90" y="468"/>
      <point x="64" y="447" type="curve"/>
      <point x="64" y="33" type="line"/>
      <point x="90" y="12"/>
      <point x="130" y="6"/>
      <point x="156" y="6" type="curve" smooth="yes"/>
      <point x="182" y="6"/>
      <point x="223" y="12"/>
    </contour>
  </outline>
</glyph>
<glyph name="e" format="1">
  <advance width="301"/>
  <unicode hex="0065"/>
  <outline>
    <contour>
      <point x="251" y="26" type="line"/>
      <point x="223" y="3"/>
      <point x="186" y="-6"/>
      <point x="151" y="-6" type="curve" smooth="yes"/>
      <point x="117" y="-6"/>
      <point x="79" y="3"/>
      <point x="51" y="26" type="curve"/>
      <point x="51" y="454" type="line"/>
      <point x="79" y="477"/>
      <point x="117" y="486"/>
      <point x="151" y="486" type="curve" smooth="yes"/>
      <point x="186" y="486"/>
      <point x="223" y="477"/>
      <point x="251" y="454" type="curve"/>
      <point x="251" y="241" type="line"/>
      <point x="64" y="241" type="line"/>
      <point x="64" y="33" type="line"/>
      <point x="90" y="12"/>
      <point x="125" y="6"/>
      <point x="151" y="6" type="curve" smooth="yes"/>
      <point x="177" y="6"/>
      <point x="213" y="12"/>
      <point x="238" y="33" type="curve"/>
      <point x="238" y="146" type="line"/>
      <point x="251" y="146" type="line"/>
    </contour>
    <contour>
      <point x="238" y="252" type="line"/>
      <point x="238" y="447" type="line"/>
      <point x="213" y="468"/>
      <point x="177" y="474"/>
      <point x="151" y="474" type="curve" smooth="yes"/>
      <point x="125" y="474"/>
      <point x="90" y="468"/>
      <point x="64" y="447" type="curve"/>
      <point x="64" y="252" type="line"/>
    </contour>
  </outline>
</glyph>
<glyph name="f" format="1">
  <advance width="178"/>
  <unicode hex="0066"/>
  <outline>
    <contour>
      <point x="163" y="711" type="line"/>
      <point x="152" y="711" type="line" smooth="yes"/>
      <point x="126" y="711"/>
      <point x="105" y="701"/>
      <point x="90" y="684" type="curve"/>
      <point x="90" y="480" type="line"/>
      <point x="158" y="480" type="line"/>
      <point x="158" y="468" type="line"/>
      <point x="90" y="468" type="line"/>
      <point x="90" y="0" type="line"/>
      <point x="77" y="0" type="line"/>
      <point x="77" y="468" type="line"/>
      <point x="40" y="468" type="line"/>
      <point x="40" y="480" type="line"/>
      <point x="77" y="480" type="line"/>
      <point x="77" y="690" type="line"/>
      <point x="93" y="710"/>
      <point x="122" y="722"/>
      <point x="152" y="722" type="curve" smooth="yes"/>
      <point x="163" y="722" type="line"/>
    </contour>
  </outline>
</glyph>
<glyph name="g" format="1">
  <advance width="316"/>
  <unicode hex="0067"/>
  <outline>
    <contour>
      <point x="261" y="-149" type="line"/>
      <point x="233" y="-172"/>
      <point x="191" y="-181"/>
      <point x="156" y="-181" type="curve" smooth="yes"/>
      <point x="122" y="-181"/>
      <point x="79" y="-172"/>
      <point x="51" y="-149" type="curve"/>
      <point x="51" y="-70" type="line"/>
      <point x="64" y="-70" type="line"/>
      <point x="64" y="-142" type="line"/>
      <point x="90" y="-163"/>
      <point x="130" y="-169"/>
      <point x="156" y="-169" type="curve" smooth="yes"/>
      <point x="182" y="-169"/>
      <point x="223" y="-163"/>
      <point x="248" y="-142" type="curve"/>
      <point x="248" y="18" type="line"/>
      <point x="224" y="4"/>
      <point x="190" y="-6"/>
      <point x="155" y="-6" type="curve" smooth="yes"/>
      <point x="120" y="-6"/>
      <point x="79" y="4"/>
      <point x="51" y="26" type="curve"/>
      <point x="51" y="454" type="line"/>
      <point x="79" y="477"/>
      <point x="122" y="486"/>
      <point x="156" y="486" type="curve" smooth="yes"/>
      <point x="191" y="486"/>
      <point x="233" y="477"/>
      <point x="261" y="454" type="curve"/>
    </contour>
    <contour>
      <point x="248" y="32" type="curve"/>
      <point x="248" y="447" type="line"/>
      <point x="223" y="468"/>
      <point x="182" y="474"/>
      <point x="156" y="474" type="curve" smooth="yes"/>
      <point x="130" y="474"/>
      <point x="90" y="468"/>
      <point x="64" y="447" type="curve"/>
      <point x="64" y="33" type="line"/>
      <point x="90" y="12"/>
      <point x="130" y="6"/>
      <point x="156" y="6" type="curve" smooth="yes"/>
      <point x="190" y="6"/>
      <point x="221" y="14"/>
    </contour>
  </outline>
</glyph>
<glyph name="h" format="1">
  <advance width="320"/>
  <unicode hex="0068"/>
  <outline>
    <contour>
      <point x="265" y="0" type="line"/>
      <point x="252" y="0" type="line"/>
      <point x="252" y="447" type="line"/>
      <point x="227" y="468"/>
      <point x="186" y="474"/>
      <point x="160" y="474" type="curve" smooth="yes"/>
      <point x="127" y="474"/>
      <point x="95" y="466"/>
      <point x="68" y="448" type="curve"/>
      <point x="68" y="0" type="line"/>
      <point x="55" y="0" type="line"/>
      <point x="55" y="720" type="line"/>
      <point x="68" y="720" type="line"/>
      <point x="68" y="462" type="line"/>
      <point x="93" y="476"/>
      <point x="126" y="486"/>
      <point x="161" y="486" type="curve" smooth="yes"/>
      <point x="196" y="486"/>
      <point x="237" y="476"/>
      <point x="265" y="454" type="curve"/>
    </contour>
  </outline>
</glyph>
<glyph name="i" format="1">
  <advance width="126"/>
  <unicode hex="0069"/>
  <outline>
    <contour>
      <point x="70" y="629" type="line"/>
      <point x="57" y="629" type="line"/>
      <point x="57" y="720" type="line"/>
      <point x="70" y="720" type="line"/>
    </contour>
    <contour>
      <point x="70" y="0" type="line"/>
      <point x="57" y="0" type="line"/>
      <point x="57" y="480" type="line"/>
      <point x="70" y="480" type="line"/>
    </contour>
  </outline>
</glyph>
<glyph name="j" format="1">
  <advance width="126"/>
  <unicode hex="006A"/>
  <outline>
    <contour>
      <point x="70" y="629" type="line"/>
      <point x="57" y="629" type="line"/>
      <point x="57" y="720" type="line"/>
      <point x="70" y="720" type="line"/>
    </contour>
    <contour>
      <point x="70" y="-150" type="line"/>
      <point x="54" y="-170"/>
      <point x="28" y="-177"/>
      <point x="0" y="-177" type="curve" smooth="yes"/>
      <point x="-6" y="-177" type="line"/>
      <point x="-6" y="-166" type="line"/>
      <point x="0" y="-166" type="line" smooth="yes"/>
      <point x="21" y="-166"/>
      <point x="43" y="-160"/>
      <point x="57" y="-144" type="curve"/>
      <point x="57" y="480" type="line"/>
      <point x="70" y="480" type="line"/>
    </contour>
  </outline>
</glyph>
<glyph name="k" format="1">
  <advance width="287"/>
  <unicode hex="006B"/>
  <outline>
    <contour>
      <point x="237" y="0" type="line"/>
      <point x="224" y="0" type="line"/>
      <point x="224" y="196" type="line"/>
      <point x="206" y="222"/>
      <point x="181" y="236"/>
      <point x="143" y="236" type="curve" smooth="yes"/>
      <point x="68" y="236" type="line"/>
      <point x="68" y="0" type="line"/>
      <point x="55" y="0" type="line"/>
      <point x="55" y="720" type="line"/>
      <point x="68" y="720" type="line"/>
      <point x="68" y="248" type="line"/>
      <point x="142" y="248" type="line" smooth="yes"/>
      <point x="184" y="248"/>
      <point x="205" y="262"/>
      <point x="222" y="284" type="curve"/>
      <point x="222" y="480" type="line"/>
      <point x="235" y="480" type="line"/>
      <point x="235" y="282" type="line"/>
      <point x="219" y="261"/>
      <point x="202" y="247"/>
      <point x="174" y="242" type="curve"/>
      <point x="202" y="236"/>
      <point x="221" y="223"/>
      <point x="237" y="200" type="curve"/>
    </contour>
  </outline>
</glyph>
<glyph name="m" format="1">
  <advance width="426"/>
  <unicode hex="006D"/>
  <outline>
    <contour>
      <point x="371" y="0" type="line"/>
      <point x="358" y="0" type="line"/>
      <point x="358" y="444" type="line"/>
      <point x="322" y="465"/>
      <point x="278" y="474"/>
      <point x="220" y="474" type="curve"/>
      <point x="220" y="0" type="line"/>
      <point x="207" y="0" type="line"/>
      <point x="207" y="474" type="line"/>
      <point x="148" y="474"/>
      <point x="105" y="465"/>
      <point x="68" y="444" type="curve"/>
      <point x="68" y="0" type="line"/>
      <point x="55" y="0" type="line"/>
      <point x="55" y="451" type="line"/>
      <point x="100" y="477"/>
      <point x="150" y="486"/>
      <point x="213" y="486" type="curve" smooth="yes"/>
      <point x="277" y="486"/>
      <point x="327" y="477"/>
      <point x="371" y="451" type="curve"/>
    </contour>
  </outline>
</glyph>
<glyph name="n" format="1">
  <advance width="315"/>
  <unicode hex="006E"/>
  <outline>
    <contour>
      <point x="260" y="0" type="line"/>
      <point x="247" y="0" type="line"/>
      <point x="247" y="447" type="line"/>
      <point x="222" y="468"/>
      <point x="184" y="474"/>
      <point x="158" y="474" type="curve" smooth="yes"/>
      <point x="132" y="474"/>
      <point x="94" y="468"/>
      <point x="68" y="447" type="curve"/>
      <point x="68" y="0" type="line"/>
      <point x="55" y="0" type="line"/>
      <point x="55" y="454" type="line"/>
      <point x="83" y="477"/>
      <point x="123" y="486"/>
      <point x="158" y="486" type="curve" smooth="yes"/>
      <point x="192" y="486"/>
      <point x="232" y="477"/>
      <point x="260" y="454" type="curve"/>
    </contour>
  </outline>
</glyph>
<glyph name="o" format="1">
  <advance width="312"/>
  <unicode hex="006F"/>
  <outline>
    <contour>
      <point x="261" y="26" type="line"/>
      <point x="233" y="3"/>
      <point x="191" y="-6"/>
      <point x="156" y="-6" type="curve" smooth="yes"/>
      <point x="122" y="-6"/>
      <point x="79" y="3"/>
      <point x="51" y="26" type="curve"/>
      <point x="51" y="454" type="line"/>
      <point x="79" y="477"/>
      <point x="122" y="486"/>
      <point x="156" y="486" type="curve" smooth="yes"/>
      <point x="191" y="486"/>
      <point x="233" y="477"/>
      <point x="261" y="454" type="curve"/>
    </contour>
    <contour>
      <point x="248" y="33" type="curve"/>
      <point x="248" y="447" type="line"/>
      <point x="223" y="468"/>
      <point x="182" y="474"/>
      <point x="156" y="474" type="curve" smooth="yes"/>
      <point x="130" y="474"/>
      <point x="90" y="468"/>
      <point x="64" y="447" type="curve"/>
      <point x="64" y="33" type="line"/>
      <point x="90" y="12"/>
      <point x="130" y="6"/>
      <point x="156" y="6" type="curve" smooth="yes"/>
      <point x="182" y="6"/>
      <point x="223" y="12"/>
    </contour>
  </outline>
</glyph>
<glyph name="q" format="1">
  <advance width="316"/>
  <unicode hex="0071"/>
  <outline>
    <contour>
      <point x="261" y="-175" type="line"/>
      <point x="248" y="-175" type="line"/>
      <point x="248" y="18" type="line"/>
      <point x="224" y="4"/>
      <point x="190" y="-6"/>
      <point x="155" y="-6" type="curve" smooth="yes"/>
      <point x="120" y="-6"/>
      <point x="79" y="4"/>
      <point x="51" y="26" type="curve"/>
      <point x="51" y="454" type="line"/>
      <point x="79" y="477"/>
      <point x="122" y="486"/>
      <point x="156" y="486" type="curve" smooth="yes"/>
      <point x="191" y="486"/>
      <point x="233" y="477"/>
      <point x="261" y="454" type="curve"/>
    </contour>
    <contour>
      <point x="248" y="32" type="curve"/>
      <point x="248" y="447" type="line"/>
      <point x="223" y="468"/>
      <point x="182" y="474"/>
      <point x="156" y="474" type="curve" smooth="yes"/>
      <point x="130" y="474"/>
      <point x="90" y="468"/>
      <point x="64" y="447" type="curve"/>
      <point x="64" y="33" type="line"/>
      <point x="90" y="12"/>
      <point x="130" y="6"/>
      <point x="156" y="6" type="curve" smooth="yes"/>
      <point x="190" y="6"/>
      <point x="221" y="14"/>
    </contour>
  </outline>
</glyph>
<glyph name="r" format="1">
  <advance width="187"/>
  <unicode hex="0072"/>
  <outline>
    <contour>
      <point x="167" y="471" type="line"/>
      <point x="139" y="471" type="line" smooth="yes"/>
      <point x="110" y="471"/>
      <point x="84" y="458"/>
      <point x="68" y="439" type="curve"/>
      <point x="68" y="0" type="line"/>
      <point x="55" y="0" type="line"/>
      <point x="55" y="445" type="line"/>
      <point x="74" y="469"/>
      <point x="106" y="482"/>
      <point x="140" y="482" type="curve" smooth="yes"/>
      <point x="167" y="482" type="line"/>
    </contour>
  </outline>
</glyph>
<glyph name="s" format="1">
  <advance width="300"/>
  <unicode hex="0073"/>
  <outline>
    <contour>
      <point x="246" y="23" type="line"/>
      <point x="218" y="3"/>
      <point x="185" y="-6"/>
      <point x="151" y="-6" type="curve" smooth="yes"/>
      <point x="116" y="-6"/>
      <point x="83" y="3"/>
      <point x="55" y="23" type="curve"/>
      <point x="55" y="146" type="line"/>
      <point x="68" y="146" type="line"/>
      <point x="68" y="31" type="line"/>
      <point x="94" y="11"/>
      <point x="125" y="6"/>
      <point x="151" y="6" type="curve" smooth="yes"/>
      <point x="177" y="6"/>
      <point x="208" y="11"/>
      <point x="233" y="31" type="curve"/>
      <point x="233" y="168" type="line"/>
      <point x="55" y="307" type="line"/>
      <point x="55" y="456" type="line"/>
      <point x="83" y="477"/>
      <point x="116" y="486"/>
      <point x="150" y="486" type="curve" smooth="yes"/>
      <point x="185" y="486"/>
      <point x="217" y="477"/>
      <point x="245" y="456" type="curve"/>
      <point x="245" y="334" type="line"/>
      <point x="232" y="334" type="line"/>
      <point x="232" y="449" type="line"/>
      <point x="207" y="469"/>
      <point x="176" y="474"/>
      <point x="150" y="474" type="curve" smooth="yes"/>
      <point x="124" y="474"/>
      <point x="94" y="469"/>
      <point x="68" y="449" type="curve"/>
      <point x="68" y="313" type="line"/>
      <point x="246" y="174" type="line"/>
    </contour>
  </outline>
</glyph>
<glyph name="t" format="1">
  <advance width="195"/>
  <unicode hex="0074"/>
  <outline>
    <contour>
      <point x="157" y="-2" type="line"/>
      <point x="146" y="-2" type="line" smooth="yes"/>
      <point x="118" y="-2"/>
      <point x="90" y="9"/>
      <point x="75" y="29" type="curve"/>
      <point x="75" y="468" type="line"/>
      <point x="38" y="468" type="line"/>
      <point x="38" y="480" type="line"/>
      <point x="75" y="480" type="line"/>
      <point x="75" y="640" type="line"/>
      <point x="88" y="640" type="line"/>
      <point x="88" y="480" type="line"/>
      <point x="156" y="480" type="line"/>
      <point x="156" y="468" type="line"/>
      <point x="88" y="468" type="line"/>
      <point x="88" y="35" type="line"/>
      <point x="102" y="19"/>
      <point x="122" y="9"/>
      <point x="147" y="9" type="curve" smooth="yes"/>
      <point x="157" y="9" type="line"/>
    </contour>
  </outline>
</glyph>
<glyph name="u" format="1">
  <advance width="315"/>
  <unicode hex="0075"/>
  <outline>
    <contour>
      <point x="260" y="26" type="line"/>
      <point x="232" y="3"/>
      <point x="192" y="-6"/>
      <point x="158" y="-6" type="curve" smooth="yes"/>
      <point x="123" y="-6"/>
      <point x="83" y="3"/>
      <point x="55" y="26" type="curve"/>
      <point x="55" y="480" type="line"/>
      <point x="68" y="480" type="line"/>
      <point x="68" y="33" type="line"/>
      <point x="94" y="12"/>
      <point x="132" y="6"/>
      <point x="158" y="6" type="curve" smooth="yes"/>
      <point x="184" y="6"/>
      <point x="222" y="12"/>
      <point x="247" y="33" type="curve"/>
      <point x="247" y="480" type="line"/>
      <point x="260" y="480" type="line"/>
    </contour>
  </outline>
</glyph>
<glyph name="v" format="1">
  <advance width="309"/>
  <unicode hex="0076"/>
  <outline>
    <contour>
      <point x="257" y="318" type="line"/>
      <point x="257" y="139"/>
      <point x="232" y="77"/>
      <point x="160" y="-2" type="curve"/>
      <point x="150" y="-2" type="line"/>
      <point x="78" y="77"/>
      <point x="52" y="139"/>
      <point x="52" y="318" type="curve" smooth="yes"/>
      <point x="52" y="480" type="line"/>
      <point x="65" y="480" type="line"/>
      <point x="65" y="318" type="line" smooth="yes"/>
      <point x="65" y="150"/>
      <point x="88" y="79"/>
      <point x="155" y="11" type="curve"/>
      <point x="221" y="79"/>
      <point x="244" y="150"/>
      <point x="244" y="318" type="curve" smooth="yes"/>
      <point x="244" y="480" type="line"/>
      <point x="257" y="480" type="line"/>
    </contour>
  </outline>
</glyph>
<glyph name="w" format="1">
  <advance width="426"/>
  <unicode hex="0077"/>
  <outline>
    <contour>
      <point x="371" y="29" type="line"/>
      <point x="327" y="3"/>
      <point x="277" y="-6"/>
      <point x="213" y="-6" type="curve" smooth="yes"/>
      <point x="150" y="-6"/>
      <point x="100" y="3"/>
      <point x="55" y="29" type="curve"/>
      <point x="55" y="480" type="line"/>
      <point x="68" y="480" type="line"/>
      <point x="68" y="36" type="line"/>
      <point x="105" y="15"/>
      <point x="148" y="6"/>
      <point x="207" y="6" type="curve"/>
      <point x="207" y="480" type="line"/>
      <point x="220" y="480" type="line"/>
      <point x="220" y="6" type="line"/>
      <point x="278" y="6"/>
      <point x="322" y="15"/>
      <point x="358" y="36" type="curve"/>
      <point x="358" y="480" type="line"/>
      <point x="371" y="480" type="line"/>
    </contour>
  </outline>
</glyph>
<glyph name="x" format="1">
  <advance width="306"/>
  <unicode hex="0078"/>
  <outline>
    <contour>
      <point x="251" y="0" type="line"/>
      <point x="238" y="0" type="line"/>
      <point x="238" y="201" type="line"/>
      <point x="213" y="226"/>
      <point x="181" y="235"/>
      <point x="152" y="235" type="curve" smooth="yes"/>
      <point x="123" y="235"/>
      <point x="91" y="226"/>
      <point x="67" y="201" type="curve"/>
      <point x="67" y="0" type="line"/>
      <point x="54" y="0" type="line"/>
      <point x="54" y="206" type="line"/>
      <point x="75" y="227"/>
      <point x="99" y="237"/>
      <point x="120" y="242" type="curve"/>
      <point x="99" y="246"/>
      <point x="75" y="256"/>
      <point x="56" y="277" type="curve"/>
      <point x="56" y="480" type="line"/>
      <point x="69" y="480" type="line"/>
      <point x="69" y="282" type="line"/>
      <point x="91" y="257"/>
      <point x="125" y="248"/>
      <point x="152" y="248" type="curve" smooth="yes"/>
      <point x="180" y="248"/>
      <point x="213" y="257"/>
      <point x="236" y="282" type="curve"/>
      <point x="236" y="480" type="line"/>
      <point x="249" y="480" type="line"/>
      <point x="249" y="277" type="line"/>
      <point x="229" y="256"/>
      <point x="205" y="246"/>
      <point x="185" y="242" type="curve"/>
      <point x="205" y="237"/>
      <point x="229" y="227"/>
      <point x="251" y="206" type="curve"/>
    </contour>
  </outline>
</glyph>
<glyph name="y" format="1">
  <advance width="320"/>
  <unicode hex="0079"/>
  <outline>
    <contour>
      <point x="265" y="-149" type="line"/>
      <point x="237" y="-172"/>
      <point x="195" y="-181"/>
      <point x="160" y="-181" type="curve" smooth="yes"/>
      <point x="126" y="-181"/>
      <point x="83" y="-172"/>
      <point x="55" y="-149" type="curve"/>
      <point x="55" y="-70" type="line"/>
      <point x="68" y="-70" type="line"/>
      <point x="68" y="-142" type="line"/>
      <point x="94" y="-163"/>
      <point x="134" y="-169"/>
      <point x="160" y="-169" type="curve" smooth="yes"/>
      <point x="186" y="-169"/>
      <point x="227" y="-163"/>
      <point x="252" y="-142" type="curve"/>
      <point x="252" y="18" type="line"/>
      <point x="228" y="4"/>
      <point x="194" y="-6"/>
      <point x="159" y="-6" type="curve" smooth="yes"/>
      <point x="124" y="-6"/>
      <point x="83" y="4"/>
      <point x="55" y="26" type="curve"/>
      <point x="55" y="480" type="line"/>
      <point x="68" y="480" type="line"/>
      <point x="68" y="33" type="line"/>
      <point x="93" y="12"/>
      <point x="134" y="6"/>
      <point x="160" y="6" type="curve" smooth="yes"/>
      <point x="194" y="6"/>
      <point x="226" y="14"/>
      <point x="252" y="32" type="curve"/>
      <point x="252" y="480" type="line"/>
      <point x="265" y="480" type="line"/>
    </contour>
  </outline>
</glyph>
<glyph name="z" format="1">
  <advance width="262"/>
  <unicode hex="007A"/>
  <outline>
    <contour>
      <point x="228" y="0" type="line"/>
      <point x="35" y="0" type="line"/>
      <point x="35" y="10" type="line"/>
      <point x="210" y="468" type="line"/>
      <point x="47" y="468" type="line"/>
      <point x="47" y="480" type="line"/>
      <point x="226" y="480" type="line"/>
      <point x="226" y="470" type="line"/>
      <point x="51" y="12" type="line"/>
      <point x="228" y="12" type="line"/>
    </contour>
  </outline>
</glyph>
<glyph name="braceleft" format="1">
  <advance width="244"/>
  <unicode hex="007B"/>
  <outline>
    <contour>
      <point x="199" y="-5" type="line"/>
      <point x="159" y="-1"/>
      <point x="126" y="15"/>
      <point x="103" y="41" type="curve"/>
      <point x="103" y="334" type="line"/>
      <point x="86" y="356"/>
      <point x="61" y="366"/>
      <point x="34" y="366" type="curve"/>
      <point x="34" y="377" type="line"/>
      <point x="61" y="377"/>
      <point x="86" y="388"/>
      <point x="103" y="410" type="curve"/>
      <point x="103" y="679" type="line"/>
      <point x="126" y="705"/>
      <point x="159" y="721"/>
      <point x="199" y="725" type="curve"/>
      <point x="199" y="712" type="line"/>
      <point x="164" y="709"/>
      <point x="133" y="695"/>
      <point x="116" y="674" type="curve"/>
      <point x="116" y="407" type="line"/>
      <point x="101" y="387"/>
      <point x="85" y="378"/>
      <point x="62" y="372" type="curve"/>
      <point x="85" y="366"/>
      <point x="101" y="357"/>
      <point x="116" y="337" type="curve"/>
      <point x="116" y="46" type="line"/>
      <point x="133" y="25"/>
      <point x="164" y="11"/>
      <point x="199" y="8" type="curve"/>
    </contour>
  </outline>
</glyph>
<glyph name="bar" format="1">
  <advance width="126"/>
  <unicode hex="007C"/>
  <outline>
    <contour>
      <point x="70" y="-115" type="line"/>
      <point x="57" y="-115" type="line"/>
      <point x="57" y="777" type="line"/>
      <point x="70" y="777" type="line"/>
    </contour>
  </outline>
</glyph>
<glyph name="braceright" format="1">
  <advance width="244"/>
  <unicode hex="007D"/>
  <outline>
    <contour>
      <point x="210" y="366" type="line"/>
      <point x="182" y="366"/>
      <point x="157" y="356"/>
      <point x="140" y="334" type="curve"/>
      <point x="140" y="41" type="line"/>
      <point x="118" y="15"/>
      <point x="84" y="-1"/>
      <point x="44" y="-5" type="curve"/>
      <point x="44" y="8" type="line"/>
      <point x="80" y="11"/>
      <point x="110" y="25"/>
      <point x="127" y="46" type="curve"/>
      <point x="127" y="337" type="line"/>
      <point x="142" y="357"/>
      <point x="158" y="366"/>
      <point x="181" y="372" type="curve"/>
      <point x="158" y="378"/>
      <point x="142" y="387"/>
      <point x="127" y="407" type="curve"/>
      <point x="127" y="674" type="line"/>
      <point x="110" y="695"/>
      <point x="80" y="709"/>
      <point x="44" y="712" type="curve"/>
      <point x="44" y="725" type="line"/>
      <point x="84" y="721"/>
      <point x="118" y="705"/>
      <point x="140" y="679" type="curve"/>
      <point x="140" y="410" type="line"/>
      <point x="157" y="388"/>
      <point x="182" y="377"/>
      <point x="210" y="377" type="curve"/>
    </contour>
  </outline>
</glyph>
<glyph name="asciitilde" format="1">
  <advance width="289"/>
  <unicode hex="007E"/>
  <outline>
    <contour>
      <point x="238" y="444" type="line"/>
      <point x="193" y="299" type="line"/>
      <point x="182" y="299" type="line"/>
      <point x="103" y="427" type="line"/>
      <point x="63" y="299" type="line"/>
      <point x="51" y="299" type="line"/>
      <point x="96" y="444" type="line"/>
      <point x="107" y="444" type="line"/>
      <point x="186" y="316" type="line"/>
      <point x="226" y="444" type="line"/>
    </contour>
  </outline>
</glyph>
<glyph name="exclamdown" format="1">
  <advance width="148"/>
  <unicode hex="00A1"/>
  <outline>
    <contour>
      <point x="80" y="624" type="line"/>
      <point x="67" y="624" type="line"/>
      <point x="67" y="720" type="line"/>
      <point x="80" y="720" type="line"/>
    </contour>
    <contour>
      <point x="80" y="0" type="line"/>
      <point x="67" y="0" type="line"/>
      <point x="67" y="546" type="line"/>
      <point x="80" y="546" type="line"/>
    </contour>
  </outline>
</glyph>
<glyph name="cent" format="1">
  <advance width="297"/>
  <unicode hex="00A2"/>
  <outline>
    <contour>
      <point x="251" y="146" type="line"/>
      <point x="225" y="125"/>
      <point x="191" y="116"/>
      <point x="158" y="114" type="curve"/>
      <point x="158" y="0" type="line"/>
      <point x="145" y="0" type="line"/>
      <point x="145" y="114" type="line"/>
      <point x="112" y="116"/>
      <point x="78" y="125"/>
      <point x="51" y="146" type="curve"/>
      <point x="51" y="574" type="line"/>
      <point x="78" y="595"/>
      <point x="112" y="604"/>
      <point x="145" y="606" type="curve"/>
      <point x="145" y="720" type="line"/>
      <point x="158" y="720" type="line"/>
      <point x="158" y="606" type="line"/>
      <point x="191" y="604"/>
      <point x="225" y="595"/>
      <point x="251" y="574" type="curve"/>
      <point x="251" y="454" type="line"/>
      <point x="238" y="454" type="line"/>
      <point x="238" y="567" type="line"/>
      <point x="213" y="588"/>
      <point x="177" y="594"/>
      <point x="151" y="594" type="curve" smooth="yes"/>
      <point x="125" y="594"/>
      <point x="90" y="588"/>
      <point x="64" y="567" type="curve"/>
      <point x="64" y="153" type="line"/>
      <point x="90" y="132"/>
      <point x="125" y="126"/>
      <point x="151" y="126" type="curve" smooth="yes"/>
      <point x="177" y="126"/>
      <point x="213" y="132"/>
      <point x="238" y="153" type="curve"/>
      <point x="238" y="266" type="line"/>
      <point x="251" y="266" type="line"/>
    </contour>
  </outline>
</glyph>
<glyph name="sterling" format="1">
  <advance width="390"/>
  <unicode hex="00A3"/>
  <outline>
    <contour>
      <point x="344" y="0" type="line"/>
      <point x="45" y="0" type="line"/>
      <point x="45" y="12" type="line"/>
      <point x="82" y="12" type="line"/>
      <point x="82" y="365" type="line"/>
      <point x="45" y="365" type="line"/>
      <point x="45" y="377" type="line"/>
      <point x="82" y="377" type="line"/>
      <point x="82" y="684" type="line"/>
      <point x="118" y="715"/>
      <point x="169" y="726"/>
      <point x="212" y="726" type="curve" smooth="yes"/>
      <point x="256" y="726"/>
      <point x="307" y="715"/>
      <point x="343" y="684" type="curve"/>
      <point x="343" y="493" type="line"/>
      <point x="330" y="493" type="line"/>
      <point x="330" y="676" type="line"/>
      <point x="298" y="703"/>
      <point x="252" y="714"/>
      <point x="212" y="714" type="curve" smooth="yes"/>
      <point x="172" y="714"/>
      <point x="127" y="703"/>
      <point x="95" y="676" type="curve"/>
      <point x="95" y="377" type="line"/>
      <point x="250" y="377" type="line"/>
      <point x="250" y="365" type="line"/>
      <point x="95" y="365" type="line"/>
      <point x="95" y="12" type="line"/>
      <point x="344" y="12" type="line"/>
    </contour>
  </outline>
</glyph>
<glyph name="section" format="1">
  <advance width="399"/>
  <unicode hex="00A7"/>
  <outline>
    <contour>
      <point x="336" y="126" type="line"/>
      <point x="319" y="116"/>
      <point x="302" y="107"/>
      <point x="282" y="102" type="curve"/>
      <point x="326" y="53" type="line"/>
      <point x="326" y="-147" type="line"/>
      <point x="290" y="-172"/>
      <point x="243" y="-181"/>
      <point x="200" y="-181" type="curve" smooth="yes"/>
      <point x="156" y="-181"/>
      <point x="110" y="-172"/>
      <point x="73" y="-147" type="curve"/>
      <point x="73" y="35" type="line"/>
      <point x="86" y="35" type="line"/>
      <point x="86" y="-139" type="line"/>
      <point x="118" y="-160"/>
      <point x="160" y="-169"/>
      <point x="200" y="-169" type="curve" smooth="yes"/>
      <point x="240" y="-169"/>
      <point x="281" y="-160"/>
      <point x="313" y="-139" type="curve"/>
      <point x="313" y="49" type="line"/>
      <point x="268" y="99" type="line"/>
      <point x="247" y="93"/>
      <point x="223" y="90"/>
      <point x="199" y="90" type="curve" smooth="yes"/>
      <point x="147" y="90"/>
      <point x="103" y="102"/>
      <point x="63" y="126" type="curve"/>
      <point x="63" y="417" type="line"/>
      <point x="80" y="428"/>
      <point x="99" y="437"/>
      <point x="118" y="441" type="curve"/>
      <point x="73" y="492" type="line"/>
      <point x="73" y="692" type="line"/>
      <point x="110" y="717"/>
      <point x="156" y="726"/>
      <point x="200" y="726" type="curve" smooth="yes"/>
      <point x="243" y="726"/>
      <point x="290" y="717"/>
      <point x="326" y="692" type="curve"/>
      <point x="326" y="510" type="line"/>
      <point x="313" y="510" type="line"/>
      <point x="313" y="684" type="line"/>
      <point x="281" y="705"/>
      <point x="240" y="714"/>
      <point x="200" y="714" type="curve" smooth="yes"/>
      <point x="160" y="714"/>
      <point x="118" y="705"/>
      <point x="86" y="684" type="curve"/>
      <point x="86" y="496" type="line"/>
      <point x="131" y="444" type="line"/>
      <point x="153" y="451"/>
      <point x="176" y="454"/>
      <point x="201" y="454" type="curve" smooth="yes"/>
      <point x="252" y="454"/>
      <point x="297" y="442"/>
      <point x="336" y="417" type="curve"/>
    </contour>
    <contour>
      <point x="323" y="135" type="curve"/>
      <point x="323" y="409" type="line"/>
      <point x="287" y="432"/>
      <point x="248" y="442"/>
      <point x="200" y="442" type="curve" smooth="yes"/>
      <point x="152" y="442"/>
      <point x="113" y="432"/>
      <point x="76" y="409" type="curve"/>
      <point x="76" y="135" type="line"/>
      <point x="113" y="112"/>
      <point x="152" y="102"/>
      <point x="200" y="102" type="curve" smooth="yes"/>
      <point x="248" y="102"/>
      <point x="287" y="112"/>
    </contour>
  </outline>
</glyph>
<glyph name="dieresis" format="1">
  <advance width="289"/>
  <unicode hex="00A8"/>
  <outline>
    <contour>
      <point x="198" y="535" type="line"/>
      <point x="185" y="535" type="line"/>
      <point x="185" y="645" type="line"/>
      <point x="198" y="645" type="line"/>
    </contour>
    <contour>
      <point x="104" y="535" type="line"/>
      <point x="91" y="535" type="line"/>
      <point x="91" y="645" type="line"/>
      <point x="104" y="645" type="line"/>
    </contour>
  </outline>
</glyph>
<glyph name="copyright" format="1">
  <advance width="492"/>
  <unicode hex="00A9"/>
  <outline>
    <contour>
      <point x="427" y="50" type="line"/>
      <point x="381" y="11"/>
      <point x="314" y="-6"/>
      <point x="246" y="-6" type="curve" smooth="yes"/>
      <point x="178" y="-6"/>
      <point x="111" y="11"/>
      <point x="64" y="50" type="curve"/>
      <point x="64" y="670" type="line"/>
      <point x="111" y="709"/>
      <point x="178" y="726"/>
      <point x="246" y="726" type="curve" smooth="yes"/>
      <point x="314" y="726"/>
      <point x="381" y="709"/>
      <point x="427" y="670" type="curve"/>
    </contour>
    <contour>
      <point x="414" y="56" type="curve"/>
      <point x="414" y="664" type="line"/>
      <point x="370" y="700"/>
      <point x="304" y="714"/>
      <point x="246" y="714" type="curve" smooth="yes"/>
      <point x="188" y="714"/>
      <point x="121" y="700"/>
      <point x="77" y="664" type="curve"/>
      <point x="77" y="56" type="line"/>
      <point x="121" y="20"/>
      <point x="188" y="6"/>
      <point x="246" y="6" type="curve" smooth="yes"/>
      <point x="304" y="6"/>
      <point x="370" y="20"/>
    </contour>
    <contour>
      <point x="324" y="121" type="line"/>
      <point x="303" y="106"/>
      <point x="276" y="99"/>
      <point x="246" y="99" type="curve" smooth="yes"/>
      <point x="215" y="99"/>
      <point x="188" y="106"/>
      <point x="168" y="121" type="curve"/>
      <point x="168" y="601" type="line"/>
      <point x="188" y="616"/>
      <point x="215" y="622"/>
      <point x="246" y="622" type="curve" smooth="yes"/>
      <point x="276" y="622"/>
      <point x="303" y="616"/>
      <point x="324" y="601" type="curve"/>
      <point x="324" y="439" type="line"/>
      <point x="311" y="439" type="line"/>
      <point x="311" y="593" type="line"/>
      <point x="295" y="605"/>
      <point x="272" y="610"/>
      <point x="246" y="610" type="curve" smooth="yes"/>
      <point x="220" y="610"/>
      <point x="197" y="605"/>
      <point x="181" y="593" type="curve"/>
      <point x="181" y="128" type="line"/>
      <point x="196" y="117"/>
      <point x="220" y="111"/>
      <point x="246" y="111" type="curve" smooth="yes"/>
      <point x="272" y="111"/>
      <point x="295" y="117"/>
      <point x="311" y="128" type="curve"/>
      <point x="311" y="283" type="line"/>
      <point x="324" y="283" type="line"/>
    </contour>
  </outline>
</glyph>
<glyph name="ordfeminine" format="1">
  <advance width="291"/>
  <unicode hex="00AA"/>
  <outline>
    <contour>
      <point x="230" y="321" type="line"/>
      <point x="206" y="301"/>
      <point x="174" y="293"/>
      <point x="145" y="293" type="curve" smooth="yes"/>
      <point x="115" y="293"/>
      <point x="84" y="301"/>
      <point x="59" y="321" type="curve"/>
      <point x="59" y="523" type="line"/>
      <point x="84" y="539"/>
      <point x="114" y="546"/>
      <point x="144" y="546" type="curve" smooth="yes"/>
      <point x="173" y="546"/>
      <point x="197" y="540"/>
      <point x="217" y="530" type="curve"/>
      <point x="217" y="689" type="line"/>
      <point x="197" y="707"/>
      <point x="167" y="712"/>
      <point x="145" y="712" type="curve" smooth="yes"/>
      <point x="123" y="712"/>
      <point x="93" y="707"/>
      <point x="72" y="689" type="curve"/>
      <point x="72" y="608" type="line"/>
      <point x="59" y="608" type="line"/>
      <point x="59" y="696" type="line"/>
      <point x="84" y="716"/>
      <point x="115" y="723"/>
      <point x="145" y="723" type="curve" smooth="yes"/>
      <point x="174" y="723"/>
      <point x="206" y="716"/>
      <point x="230" y="696" type="curve"/>
    </contour>
    <contour>
      <point x="217" y="328" type="curve"/>
      <point x="217" y="517" type="line"/>
      <point x="195" y="529"/>
      <point x="173" y="535"/>
      <point x="145" y="535" type="curve" smooth="yes"/>
      <point x="123" y="535"/>
      <point x="93" y="531"/>
      <point x="72" y="516" type="curve"/>
      <point x="72" y="328" type="line"/>
      <point x="93" y="310"/>
      <point x="123" y="304"/>
      <point x="145" y="304" type="curve" smooth="yes"/>
      <point x="167" y="304"/>
      <point x="197" y="310"/>
    </contour>
  </outline>
</glyph>
<glyph name="guillemotleft" format="1">
  <advance width="339"/>
  <unicode hex="00AB"/>
  <outline>
    <contour>
      <point x="303" y="24" type="line"/>
      <point x="169" y="235" type="line"/>
      <point x="169" y="245" type="line"/>
      <point x="303" y="456" type="line"/>
      <point x="303" y="435" type="line"/>
      <point x="178" y="240" type="line"/>
      <point x="303" y="45" type="line"/>
    </contour>
    <contour>
      <point x="161" y="24" type="line"/>
      <point x="27" y="235" type="line"/>
      <point x="27" y="245" type="line"/>
      <point x="161" y="456" type="line"/>
      <point x="161" y="435" type="line"/>
      <point x="36" y="240" type="line"/>
      <point x="161" y="45" type="line"/>
    </contour>
  </outline>
</glyph>
<glyph name="macron" format="1">
  <advance width="289"/>
  <unicode hex="00AF"/>
  <unicode hex="02C9"/>
  <outline>
    <contour>
      <point x="226" y="535" type="line"/>
      <point x="63" y="535" type="line"/>
      <point x="63" y="547" type="line"/>
      <point x="226" y="547" type="line"/>
    </contour>
  </outline>
</glyph>
<glyph name="degree" format="1">
  <advance width="296"/>
  <unicode hex="00B0"/>
  <outline>
    <contour>
      <point x="240" y="381" type="line"/>
      <point x="212" y="358"/>
      <point x="182" y="349"/>
      <point x="148" y="349" type="curve" smooth="yes"/>
      <point x="113" y="349"/>
      <point x="83" y="358"/>
      <point x="55" y="381" type="curve"/>
      <point x="55" y="694" type="line"/>
      <point x="83" y="717"/>
      <point x="113" y="726"/>
      <point x="148" y="726" type="curve" smooth="yes"/>
      <point x="182" y="726"/>
      <point x="212" y="717"/>
      <point x="240" y="694" type="curve"/>
    </contour>
    <contour>
      <point x="227" y="388" type="curve"/>
      <point x="227" y="687" type="line"/>
      <point x="202" y="708"/>
      <point x="174" y="714"/>
      <point x="148" y="714" type="curve" smooth="yes"/>
      <point x="122" y="714"/>
      <point x="94" y="708"/>
      <point x="68" y="687" type="curve"/>
      <point x="68" y="388" type="line"/>
      <point x="94" y="367"/>
      <point x="122" y="361"/>
      <point x="148" y="361" type="curve" smooth="yes"/>
      <point x="174" y="361"/>
      <point x="202" y="367"/>
    </contour>
  </outline>
</glyph>
<glyph name="acute" format="1">
  <advance width="289"/>
  <unicode hex="00B4"/>
  <outline>
    <contour>
      <point x="183" y="657" type="line"/>
      <point x="121" y="535" type="line"/>
      <point x="106" y="535" type="line"/>
      <point x="168" y="657" type="line"/>
    </contour>
  </outline>
</glyph>
<glyph name="paragraph" format="1">
  <advance width="430"/>
  <unicode hex="00B6"/>
  <outline>
    <contour>
      <point x="359" y="0" type="line"/>
      <point x="346" y="0" type="line"/>
      <point x="346" y="708" type="line"/>
      <point x="271" y="708" type="line"/>
      <point x="271" y="0" type="line"/>
      <point x="258" y="0" type="line"/>
      <point x="258" y="333" type="line"/>
      <point x="181" y="333" type="line" smooth="yes"/>
      <point x="127" y="333"/>
      <point x="83" y="346"/>
      <point x="46" y="389" type="curve"/>
      <point x="46" y="664" type="line"/>
      <point x="83" y="708"/>
      <point x="127" y="720"/>
      <point x="181" y="720" type="curve" smooth="yes"/>
      <point x="359" y="720" type="line"/>
    </contour>
    <contour>
      <point x="258" y="345" type="line"/>
      <point x="258" y="708" type="line"/>
      <point x="181" y="708" type="line" smooth="yes"/>
      <point x="136" y="708"/>
      <point x="93" y="698"/>
      <point x="59" y="658" type="curve"/>
      <point x="59" y="395" type="line"/>
      <point x="93" y="356"/>
      <point x="135" y="345"/>
      <point x="181" y="345" type="curve" smooth="yes"/>
    </contour>
  </outline>
</glyph>
<glyph name="cedilla" format="1">
  <advance width="289"/>
  <unicode hex="00B8"/>
  <outline>
    <contour>
      <point x="151" y="-62" type="line"/>
      <point x="135" y="-79"/>
      <point x="114" y="-85"/>
      <point x="92" y="-85" type="curve" smooth="yes"/>
      <point x="88" y="-85" type="line"/>
      <point x="88" y="-73" type="line"/>
      <point x="92" y="-73" type="line" smooth="yes"/>
      <point x="110" y="-73"/>
      <point x="124" y="-69"/>
      <point x="138" y="-56" type="curve"/>
      <point x="138" y="3" type="line"/>
      <point x="151" y="3" type="line"/>
    </contour>
  </outline>
</glyph>
<glyph name="ordmasculine" format="1">
  <advance width="302"/>
  <unicode hex="00BA"/>
  <outline>
    <contour>
      <point x="241" y="321" type="line"/>
      <point x="216" y="301"/>
      <point x="181" y="293"/>
      <point x="151" y="293" type="curve" smooth="yes"/>
      <point x="122" y="293"/>
      <point x="86" y="301"/>
      <point x="62" y="321" type="curve"/>
      <point x="62" y="696" type="line"/>
      <point x="86" y="716"/>
      <point x="122" y="723"/>
      <point x="151" y="723" type="curve" smooth="yes"/>
      <point x="181" y="723"/>
      <point x="216" y="716"/>
      <point x="241" y="696" type="curve"/>
    </contour>
    <contour>
      <point x="228" y="328" type="curve"/>
      <point x="228" y="689" type="line"/>
      <point x="207" y="707"/>
      <point x="173" y="712"/>
      <point x="151" y="712" type="curve" smooth="yes"/>
      <point x="129" y="712"/>
      <point x="95" y="707"/>
      <point x="74" y="689" type="curve"/>
      <point x="74" y="328" type="line"/>
      <point x="95" y="310"/>
      <point x="129" y="304"/>
      <point x="151" y="304" type="curve" smooth="yes"/>
      <point x="173" y="304"/>
      <point x="207" y="310"/>
    </contour>
  </outline>
</glyph>
<glyph name="guillemotright" format="1">
  <advance width="339"/>
  <unicode hex="00BB"/>
  <outline>
    <contour>
      <point x="312" y="235" type="line"/>
      <point x="178" y="24" type="line"/>
      <point x="178" y="45" type="line"/>
      <point x="303" y="240" type="line"/>
      <point x="178" y="435" type="line"/>
      <point x="178" y="456" type="line"/>
      <point x="312" y="245" type="line"/>
    </contour>
    <contour>
      <point x="170" y="235" type="line"/>
      <point x="36" y="24" type="line"/>
      <point x="36" y="45" type="line"/>
      <point x="161" y="240" type="line"/>
      <point x="36" y="435" type="line"/>
      <point x="36" y="456" type="line"/>
      <point x="170" y="245" type="line"/>
    </contour>
  </outline>
</glyph>
<glyph name="questiondown" format="1">
  <advance width="340"/>
  <unicode hex="00BF"/>
  <outline>
    <contour>
      <point x="175" y="624" type="line"/>
      <point x="162" y="624" type="line"/>
      <point x="162" y="720" type="line"/>
      <point x="175" y="720" type="line"/>
    </contour>
    <contour>
      <point x="297" y="36" type="line"/>
      <point x="260" y="5"/>
      <point x="214" y="-6"/>
      <point x="170" y="-6" type="curve" smooth="yes"/>
      <point x="127" y="-6"/>
      <point x="80" y="5"/>
      <point x="44" y="36" type="curve"/>
      <point x="44" y="248" type="line"/>
      <point x="162" y="412" type="line"/>
      <point x="162" y="546" type="line"/>
      <point x="175" y="546" type="line"/>
      <point x="175" y="410" type="line"/>
      <point x="57" y="246" type="line"/>
      <point x="57" y="44" type="line"/>
      <point x="89" y="17"/>
      <point x="130" y="6"/>
      <point x="170" y="6" type="curve" smooth="yes"/>
      <point x="210" y="6"/>
      <point x="252" y="17"/>
      <point x="284" y="44" type="curve"/>
      <point x="284" y="227" type="line"/>
      <point x="297" y="227" type="line"/>
    </contour>
  </outline>
</glyph>
<glyph name="Aring" format="1">
  <advance width="421"/>
  <unicode hex="00C5"/>
  <outline>
    <contour>
      <point x="352" y="0" type="line"/>
      <point x="339" y="0" type="line"/>
      <point x="339" y="341" type="line"/>
      <point x="82" y="341" type="line"/>
      <point x="82" y="0" type="line"/>
      <point x="69" y="0" type="line"/>
      <point x="69" y="681" type="line"/>
      <point x="113" y="713"/>
      <point x="161" y="726"/>
      <point x="211" y="726" type="curve" smooth="yes"/>
      <point x="260" y="726"/>
      <point x="309" y="713"/>
      <point x="352" y="681" type="curve"/>
    </contour>
    <contour>
      <point x="339" y="353" type="line"/>
      <point x="339" y="674" type="line"/>
      <point x="299" y="703"/>
      <point x="256" y="714"/>
      <point x="211" y="714" type="curve" smooth="yes"/>
      <point x="165" y="714"/>
      <point x="123" y="703"/>
      <point x="82" y="674" type="curve"/>
      <point x="82" y="353" type="line"/>
    </contour>
    <contour>
      <point x="283" y="787" type="line"/>
      <point x="264" y="773"/>
      <point x="236" y="765"/>
      <point x="211" y="765" type="curve" smooth="yes"/>
      <point x="186" y="765"/>
      <point x="157" y="773"/>
      <point x="138" y="787" type="curve"/>
      <point x="138" y="870" type="line"/>
      <point x="157" y="884"/>
      <point x="186" y="892"/>
      <point x="211" y="892" type="curve" smooth="yes"/>
      <point x="236" y="892"/>
      <point x="264" y="884"/>
      <point x="283" y="870" type="curve"/>
    </contour>
    <contour>
      <point x="270" y="794" type="curve"/>
      <point x="270" y="863" type="line"/>
      <point x="254" y="875"/>
      <point x="229" y="880"/>
      <point x="211" y="880" type="curve" smooth="yes"/>
      <point x="192" y="880"/>
      <point x="168" y="875"/>
      <point x="151" y="863" type="curve"/>
      <point x="151" y="794" type="line"/>
      <point x="168" y="782"/>
      <point x="192" y="777"/>
      <point x="211" y="777" type="curve" smooth="yes"/>
      <point x="229" y="777"/>
      <point x="254" y="782"/>
    </contour>
  </outline>
</glyph>
<glyph name="AE" format="1">
  <advance width="662"/>
  <unicode hex="00C6"/>
  <outline>
    <contour>
      <point x="597" y="29" type="line"/>
      <point x="554" y="4"/>
      <point x="510" y="-6"/>
      <point x="461" y="-6" type="curve" smooth="yes"/>
      <point x="411" y="-6"/>
      <point x="368" y="4"/>
      <point x="324" y="29" type="curve"/>
      <point x="324" y="341" type="line"/>
      <point x="82" y="341" type="line"/>
      <point x="82" y="0" type="line"/>
      <point x="69" y="0" type="line"/>
      <point x="69" y="689" type="line"/>
      <point x="105" y="715"/>
      <point x="154" y="726"/>
      <point x="203" y="726" type="curve" smooth="yes"/>
      <point x="249" y="726"/>
      <point x="295" y="717"/>
      <point x="329" y="694" type="curve"/>
      <point x="372" y="717"/>
      <point x="413" y="726"/>
      <point x="461" y="726" type="curve" smooth="yes"/>
      <point x="510" y="726"/>
      <point x="554" y="716"/>
      <point x="597" y="691" type="curve"/>
      <point x="597" y="493" type="line"/>
      <point x="584" y="493" type="line"/>
      <point x="584" y="683" type="line"/>
      <point x="544" y="706"/>
      <point x="506" y="714"/>
      <point x="461" y="714" type="curve" smooth="yes"/>
      <point x="415" y="714"/>
      <point x="378" y="706"/>
      <point x="337" y="683" type="curve"/>
      <point x="337" y="377" type="line"/>
      <point x="512" y="377" type="line"/>
      <point x="512" y="365" type="line"/>
      <point x="337" y="365" type="line"/>
      <point x="337" y="37" type="line"/>
      <point x="377" y="14"/>
      <point x="415" y="6"/>
      <point x="461" y="6" type="curve" smooth="yes"/>
      <point x="506" y="6"/>
      <point x="544" y="14"/>
      <point x="584" y="37" type="curve"/>
      <point x="584" y="227" type="line"/>
      <point x="597" y="227" type="line"/>
    </contour>
    <contour>
      <point x="324" y="353" type="line"/>
      <point x="324" y="682" type="line"/>
      <point x="291" y="706"/>
      <point x="247" y="714"/>
      <point x="203" y="714" type="curve" smooth="yes"/>
      <point x="160" y="714"/>
      <point x="115" y="706"/>
      <point x="82" y="682" type="curve"/>
      <point x="82" y="353" type="line"/>
    </contour>
  </outline>
</glyph>
<glyph name="Ccedilla" format="1">
  <advance width="416"/>
  <unicode hex="00C7"/>
  <outline>
    <contour>
      <point x="352" y="41" type="line"/>
      <point x="310" y="9"/>
      <point x="262" y="-4"/>
      <point x="215" y="-6" type="curve"/>
      <point x="215" y="-62" type="line"/>
      <point x="199" y="-79"/>
      <point x="178" y="-85"/>
      <point x="156" y="-85" type="curve" smooth="yes"/>
      <point x="152" y="-85" type="line"/>
      <point x="152" y="-73" type="line"/>
      <point x="156" y="-73" type="line" smooth="yes"/>
      <point x="174" y="-73"/>
      <point x="188" y="-69"/>
      <point x="202" y="-56" type="curve"/>
      <point x="202" y="-6" type="line"/>
      <point x="154" y="-4"/>
      <point x="106" y="9"/>
      <point x="64" y="41" type="curve"/>
      <point x="64" y="679" type="line"/>
      <point x="108" y="713"/>
      <point x="159" y="726"/>
      <point x="208" y="726" type="curve" smooth="yes"/>
      <point x="258" y="726"/>
      <point x="309" y="713"/>
      <point x="352" y="679" type="curve"/>
      <point x="352" y="493" type="line"/>
      <point x="339" y="493" type="line"/>
      <point x="339" y="672" type="line"/>
      <point x="299" y="703"/>
      <point x="254" y="714"/>
      <point x="208" y="714" type="curve" smooth="yes"/>
      <point x="163" y="714"/>
      <point x="118" y="703"/>
      <point x="77" y="672" type="curve"/>
      <point x="77" y="48" type="line"/>
      <point x="117" y="17"/>
      <point x="163" y="6"/>
      <point x="208" y="6" type="curve" smooth="yes"/>
      <point x="254" y="6"/>
      <point x="299" y="17"/>
      <point x="339" y="48" type="curve"/>
      <point x="339" y="227" type="line"/>
      <point x="352" y="227" type="line"/>
    </contour>
  </outline>
</glyph>
<glyph name="Eth" format="1">
  <advance width="430"/>
  <unicode hex="00D0"/>
  <outline>
    <contour>
      <point x="366" y="68" type="line"/>
      <point x="328" y="24"/>
      <point x="277" y="0"/>
      <point x="193" y="0" type="curve" smooth="yes"/>
      <point x="82" y="0" type="line"/>
      <point x="82" y="365" type="line"/>
      <point x="37" y="365" type="line"/>
      <point x="37" y="377" type="line"/>
      <point x="82" y="377" type="line"/>
      <point x="82" y="720" type="line"/>
      <point x="193" y="720" type="line" smooth="yes"/>
      <point x="277" y="720"/>
      <point x="328" y="696"/>
      <point x="366" y="652" type="curve"/>
    </contour>
    <contour>
      <point x="353" y="74" type="curve"/>
      <point x="353" y="646" type="line"/>
      <point x="319" y="686"/>
      <point x="270" y="708"/>
      <point x="193" y="708" type="curve" smooth="yes"/>
      <point x="95" y="708" type="line"/>
      <point x="95" y="377" type="line"/>
      <point x="160" y="377" type="line"/>
      <point x="160" y="365" type="line"/>
      <point x="95" y="365" type="line"/>
      <point x="95" y="12" type="line"/>
      <point x="193" y="12" type="line" smooth="yes"/>
      <point x="270" y="12"/>
      <point x="319" y="34"/>
    </contour>
  </outline>
</glyph>
<glyph name="Oslash" format="1">
  <advance width="431"/>
  <unicode hex="00D8"/>
  <outline>
    <contour>
      <point x="367" y="49" type="line"/>
      <point x="324" y="11"/>
      <point x="273" y="-6"/>
      <point x="216" y="-6" type="curve" smooth="yes"/>
      <point x="188" y="-6"/>
      <point x="161" y="-2"/>
      <point x="136" y="7" type="curve"/>
      <point x="117" y="-70" type="line"/>
      <point x="104" y="-70" type="line"/>
      <point x="124" y="11" type="line"/>
      <point x="102" y="21"/>
      <point x="83" y="33"/>
      <point x="64" y="49" type="curve"/>
      <point x="64" y="671" type="line"/>
      <point x="108" y="709"/>
      <point x="158" y="726"/>
      <point x="216" y="726" type="curve" smooth="yes"/>
      <point x="244" y="726"/>
      <point x="270" y="722"/>
      <point x="295" y="713" type="curve"/>
      <point x="314" y="790" type="line"/>
      <point x="327" y="790" type="line"/>
      <point x="307" y="709" type="line"/>
      <point x="328" y="700"/>
      <point x="348" y="687"/>
      <point x="367" y="671" type="curve"/>
    </contour>
    <contour>
      <point x="354" y="55" type="curve"/>
      <point x="354" y="665" type="line"/>
      <point x="338" y="678"/>
      <point x="322" y="689"/>
      <point x="304" y="697" type="curve"/>
      <point x="139" y="19" type="line"/>
      <point x="163" y="10"/>
      <point x="189" y="6"/>
      <point x="216" y="6" type="curve" smooth="yes"/>
      <point x="269" y="6"/>
      <point x="314" y="21"/>
    </contour>
    <contour>
      <point x="292" y="701" type="line"/>
      <point x="269" y="710"/>
      <point x="243" y="714"/>
      <point x="216" y="714" type="curve" smooth="yes"/>
      <point x="163" y="714"/>
      <point x="118" y="699"/>
      <point x="77" y="665" type="curve"/>
      <point x="77" y="55" type="line"/>
      <point x="93" y="42"/>
      <point x="109" y="31"/>
      <point x="127" y="24" type="curve"/>
    </contour>
  </outline>
</glyph>
<glyph name="Thorn" format="1">
  <advance width="368"/>
  <unicode hex="00DE"/>
  <outline>
    <contour>
      <point x="321" y="214" type="line"/>
      <point x="284" y="170"/>
      <point x="241" y="158"/>
      <point x="187" y="158" type="curve" smooth="yes"/>
      <point x="85" y="158" type="line"/>
      <point x="85" y="0" type="line"/>
      <point x="72" y="0" type="line"/>
      <point x="72" y="720" type="line"/>
      <point x="85" y="720" type="line"/>
      <point x="85" y="581" type="line"/>
      <point x="187" y="581" type="line" smooth="yes"/>
      <point x="241" y="581"/>
      <point x="284" y="568"/>
      <point x="321" y="524" type="curve"/>
    </contour>
    <contour>
      <point x="308" y="220" type="curve"/>
      <point x="308" y="518" type="line"/>
      <point x="275" y="558"/>
      <point x="232" y="569"/>
      <point x="187" y="569" type="curve" smooth="yes"/>
      <point x="85" y="569" type="line"/>
      <point x="85" y="170" type="line"/>
      <point x="187" y="170" type="line" smooth="yes"/>
      <point x="233" y="170"/>
      <point x="275" y="180"/>
    </contour>
  </outline>
</glyph>
<glyph name="germandbls" format="1">
  <advance width="287"/>
  <unicode hex="00DF"/>
  <outline>
    <contour>
      <point x="237" y="34" type="line"/>
      <point x="213" y="6"/>
      <point x="167" y="-2"/>
      <point x="132" y="-2" type="curve"/>
      <point x="132" y="9" type="line"/>
      <point x="163" y="9"/>
      <point x="204" y="16"/>
      <point x="224" y="40" type="curve"/>
      <point x="224" y="326" type="line"/>
      <point x="206" y="352"/>
      <point x="181" y="365"/>
      <point x="143" y="365" type="curve" smooth="yes"/>
      <point x="68" y="365" type="line"/>
      <point x="68" y="0" type="line"/>
      <point x="55" y="0" type="line"/>
      <point x="55" y="700" type="line"/>
      <point x="83" y="719"/>
      <point x="111" y="726"/>
      <point x="145" y="726" type="curve" smooth="yes"/>
      <point x="180" y="726"/>
      <point x="207" y="719"/>
      <point x="235" y="700" type="curve"/>
      <point x="235" y="411" type="line"/>
      <point x="219" y="390"/>
      <point x="202" y="376"/>
      <point x="174" y="371" type="curve"/>
      <point x="202" y="366"/>
      <point x="221" y="353"/>
      <point x="237" y="329" type="curve"/>
    </contour>
    <contour>
      <point x="222" y="414" type="curve"/>
      <point x="222" y="692" type="line"/>
      <point x="199" y="709"/>
      <point x="171" y="714"/>
      <point x="145" y="714" type="curve" smooth="yes"/>
      <point x="119" y="714"/>
      <point x="91" y="709"/>
      <point x="68" y="692" type="curve"/>
      <point x="68" y="377" type="line"/>
      <point x="142" y="377" type="line" smooth="yes"/>
      <point x="184" y="377"/>
      <point x="205" y="392"/>
    </contour>
  </outline>
</glyph>
<glyph name="ae" format="1">
  <advance width="467"/>
  <unicode hex="00E6"/>
  <outline>
    <contour>
      <point x="417" y="20" type="line"/>
      <point x="389" y="1"/>
      <point x="356" y="-6"/>
      <point x="322" y="-6" type="curve" smooth="yes"/>
      <point x="290" y="-6"/>
      <point x="260" y="0"/>
      <point x="233" y="16" type="curve"/>
      <point x="207" y="0"/>
      <point x="177" y="-6"/>
      <point x="145" y="-6" type="curve" smooth="yes"/>
      <point x="110" y="-6"/>
      <point x="78" y="1"/>
      <point x="50" y="20" type="curve"/>
      <point x="50" y="255" type="line"/>
      <point x="78" y="273"/>
      <point x="109" y="282"/>
      <point x="144" y="282" type="curve" smooth="yes"/>
      <point x="179" y="282"/>
      <point x="202" y="274"/>
      <point x="227" y="261" type="curve"/>
      <point x="227" y="452" type="line"/>
      <point x="201" y="469"/>
      <point x="171" y="474"/>
      <point x="145" y="474" type="curve" smooth="yes"/>
      <point x="119" y="474"/>
      <point x="88" y="469"/>
      <point x="63" y="452" type="curve"/>
      <point x="63" y="352" type="line"/>
      <point x="50" y="352" type="line"/>
      <point x="50" y="460" type="line"/>
      <point x="78" y="479"/>
      <point x="110" y="486"/>
      <point x="145" y="486" type="curve" smooth="yes"/>
      <point x="177" y="486"/>
      <point x="207" y="480"/>
      <point x="233" y="464" type="curve"/>
      <point x="260" y="480"/>
      <point x="290" y="486"/>
      <point x="322" y="486" type="curve" smooth="yes"/>
      <point x="356" y="486"/>
      <point x="389" y="479"/>
      <point x="417" y="460" type="curve"/>
      <point x="417" y="241" type="line"/>
      <point x="240" y="241" type="line"/>
      <point x="240" y="28" type="line"/>
      <point x="265" y="10"/>
      <point x="296" y="6"/>
      <point x="322" y="6" type="curve" smooth="yes"/>
      <point x="348" y="6"/>
      <point x="378" y="10"/>
      <point x="404" y="28" type="curve"/>
      <point x="404" y="146" type="line"/>
      <point x="417" y="146" type="line"/>
    </contour>
    <contour>
      <point x="404" y="252" type="line"/>
      <point x="404" y="452" type="line"/>
      <point x="378" y="469"/>
      <point x="348" y="474"/>
      <point x="322" y="474" type="curve" smooth="yes"/>
      <point x="296" y="474"/>
      <point x="265" y="469"/>
      <point x="240" y="452" type="curve"/>
      <point x="240" y="252" type="line"/>
    </contour>
    <contour>
      <point x="227" y="28" type="curve"/>
      <point x="227" y="248" type="line"/>
      <point x="200" y="263"/>
      <point x="178" y="270"/>
      <point x="145" y="270" type="curve" smooth="yes"/>
      <point x="119" y="270"/>
      <point x="88" y="265"/>
      <point x="63" y="247" type="curve"/>
      <point x="63" y="28" type="line"/>
      <point x="88" y="10"/>
      <point x="119" y="6"/>
      <point x="145" y="6" type="curve" smooth="yes"/>
      <point x="171" y="6"/>
      <point x="201" y="10"/>
    </contour>
  </outline>
</glyph>
<glyph name="ccedilla" format="1">
  <advance width="297"/>
  <unicode hex="00E7"/>
  <outline>
    <contour>
      <point x="251" y="26" type="line"/>
      <point x="225" y="5"/>
      <point x="190" y="-5"/>
      <point x="157" y="-6" type="curve"/>
      <point x="157" y="-62" type="line"/>
      <point x="141" y="-79"/>
      <point x="120" y="-85"/>
      <point x="98" y="-85" type="curve" smooth="yes"/>
      <point x="94" y="-85" type="line"/>
      <point x="94" y="-73" type="line"/>
      <point x="98" y="-73" type="line" smooth="yes"/>
      <point x="116" y="-73"/>
      <point x="131" y="-69"/>
      <point x="144" y="-56" type="curve"/>
      <point x="144" y="-6" type="line"/>
      <point x="111" y="-4"/>
      <point x="78" y="5"/>
      <point x="51" y="26" type="curve"/>
      <point x="51" y="454" type="line"/>
      <point x="79" y="477"/>
      <point x="117" y="486"/>
      <point x="151" y="486" type="curve" smooth="yes"/>
      <point x="186" y="486"/>
      <point x="223" y="477"/>
      <point x="251" y="454" type="curve"/>
      <point x="251" y="334" type="line"/>
      <point x="238" y="334" type="line"/>
      <point x="238" y="447" type="line"/>
      <point x="213" y="468"/>
      <point x="177" y="474"/>
      <point x="151" y="474" type="curve" smooth="yes"/>
      <point x="125" y="474"/>
      <point x="90" y="468"/>
      <point x="64" y="447" type="curve"/>
      <point x="64" y="33" type="line"/>
      <point x="90" y="12"/>
      <point x="125" y="6"/>
      <point x="151" y="6" type="curve" smooth="yes"/>
      <point x="177" y="6"/>
      <point x="213" y="12"/>
      <point x="238" y="33" type="curve"/>
      <point x="238" y="146" type="line"/>
      <point x="251" y="146" type="line"/>
    </contour>
  </outline>
</glyph>
<glyph name="oslash" format="1">
  <advance width="312"/>
  <unicode hex="00F8"/>
  <outline>
    <contour>
      <point x="261" y="26" type="line"/>
      <point x="233" y="3"/>
      <point x="191" y="-6"/>
      <point x="156" y="-6" type="curve" smooth="yes"/>
      <point x="139" y="-6"/>
      <point x="120" y="-4"/>
      <point x="102" y="1" type="curve"/>
      <point x="84" y="-70" type="line"/>
      <point x="71" y="-70" type="line"/>
      <point x="90" y="5" type="line"/>
      <point x="75" y="10"/>
      <point x="62" y="17"/>
      <point x="51" y="26" type="curve"/>
      <point x="51" y="454" type="line"/>
      <point x="79" y="477"/>
      <point x="122" y="486"/>
      <point x="156" y="486" type="curve" smooth="yes"/>
      <point x="173" y="486"/>
      <point x="192" y="484"/>
      <point x="210" y="479" type="curve"/>
      <point x="228" y="550" type="line"/>
      <point x="241" y="550" type="line"/>
      <point x="222" y="475" type="line"/>
      <point x="237" y="470"/>
      <point x="250" y="463"/>
      <point x="261" y="454" type="curve"/>
    </contour>
    <contour>
      <point x="248" y="33" type="curve"/>
      <point x="248" y="447" type="line"/>
      <point x="240" y="454"/>
      <point x="230" y="459"/>
      <point x="219" y="463" type="curve"/>
      <point x="105" y="13" type="line"/>
      <point x="123" y="8"/>
      <point x="141" y="6"/>
      <point x="156" y="6" type="curve" smooth="yes"/>
      <point x="182" y="6"/>
      <point x="223" y="12"/>
    </contour>
    <contour>
      <point x="207" y="467" type="line"/>
      <point x="189" y="472"/>
      <point x="170" y="474"/>
      <point x="156" y="474" type="curve" smooth="yes"/>
      <point x="130" y="474"/>
      <point x="90" y="468"/>
      <point x="64" y="447" type="curve"/>
      <point x="64" y="33" type="line"/>
      <point x="72" y="26"/>
      <point x="82" y="21"/>
      <point x="93" y="17" type="curve"/>
    </contour>
  </outline>
</glyph>
<glyph name="thorn" format="1">
  <advance width="316"/>
  <unicode hex="00FE"/>
  <outline>
    <contour>
      <point x="265" y="26" type="line"/>
      <point x="237" y="4"/>
      <point x="196" y="-6"/>
      <point x="161" y="-6" type="curve" smooth="yes"/>
      <point x="126" y="-6"/>
      <point x="93" y="4"/>
      <point x="68" y="18" type="curve"/>
      <point x="68" y="-175" type="line"/>
      <point x="55" y="-175" type="line"/>
      <point x="55" y="720" type="line"/>
      <point x="68" y="720" type="line"/>
      <point x="68" y="462" type="line"/>
      <point x="93" y="476"/>
      <point x="126" y="486"/>
      <point x="161" y="486" type="curve" smooth="yes"/>
      <point x="196" y="486"/>
      <point x="237" y="476"/>
      <point x="265" y="454" type="curve"/>
    </contour>
    <contour>
      <point x="252" y="33" type="curve"/>
      <point x="252" y="447" type="line"/>
      <point x="227" y="468"/>
      <point x="186" y="474"/>
      <point x="160" y="474" type="curve" smooth="yes"/>
      <point x="127" y="474"/>
      <point x="95" y="466"/>
      <point x="68" y="448" type="curve"/>
      <point x="68" y="32" type="line"/>
      <point x="95" y="14"/>
      <point x="127" y="6"/>
      <point x="160" y="6" type="curve" smooth="yes"/>
      <point x="186" y="6"/>
      <point x="227" y="12"/>
    </contour>
  </outline>
</glyph>
<glyph name="dotlessi" format="1">
  <advance width="126"/>
  <unicode hex="0131"/>
  <outline>
    <contour>
      <point x="70" y="0" type="line"/>
      <point x="57" y="0" type="line"/>
      <point x="57" y="480" type="line"/>
      <point x="70" y="480" type="line"/>
    </contour>
  </outline>
</glyph>
<glyph name="Lslash" format="1">
  <advance width="344"/>
  <unicode hex="0141"/>
  <outline>
    <contour>
      <point x="306" y="0" type="line"/>
      <point x="77" y="0" type="line"/>
      <point x="77" y="338" type="line"/>
      <point x="38" y="319" type="line"/>
      <point x="38" y="334" type="line"/>
      <point x="77" y="353" type="line"/>
      <point x="77" y="720" type="line"/>
      <point x="90" y="720" type="line"/>
      <point x="90" y="359" type="line"/>
      <point x="193" y="411" type="line"/>
      <point x="193" y="396" type="line"/>
      <point x="90" y="345" type="line"/>
      <point x="90" y="12" type="line"/>
      <point x="306" y="12" type="line"/>
    </contour>
  </outline>
</glyph>
<glyph name="lslash" format="1">
  <advance width="136"/>
  <unicode hex="0142"/>
  <outline>
    <contour>
      <point x="112" y="362" type="line"/>
      <point x="75" y="343" type="line"/>
      <point x="75" y="0" type="line"/>
      <point x="62" y="0" type="line"/>
      <point x="62" y="336" type="line"/>
      <point x="24" y="317" type="line"/>
      <point x="24" y="332" type="line"/>
      <point x="62" y="351" type="line"/>
      <point x="62" y="720" type="line"/>
      <point x="75" y="720" type="line"/>
      <point x="75" y="357" type="line"/>
      <point x="112" y="376" type="line"/>
    </contour>
  </outline>
</glyph>
<glyph name="OE" format="1">
  <advance width="677"/>
  <unicode hex="0152"/>
  <outline>
    <contour>
      <point x="612" y="29" type="line"/>
      <point x="569" y="4"/>
      <point x="525" y="-6"/>
      <point x="476" y="-6" type="curve" smooth="yes"/>
      <point x="428" y="-6"/>
      <point x="387" y="3"/>
      <point x="345" y="26" type="curve"/>
      <point x="303" y="4"/>
      <point x="257" y="-6"/>
      <point x="208" y="-6" type="curve" smooth="yes"/>
      <point x="156" y="-6"/>
      <point x="108" y="5"/>
      <point x="64" y="30" type="curve"/>
      <point x="64" y="690" type="line"/>
      <point x="108" y="715"/>
      <point x="156" y="726"/>
      <point x="208" y="726" type="curve" smooth="yes"/>
      <point x="257" y="726"/>
      <point x="303" y="716"/>
      <point x="344" y="694" type="curve"/>
      <point x="387" y="717"/>
      <point x="428" y="726"/>
      <point x="476" y="726" type="curve" smooth="yes"/>
      <point x="525" y="726"/>
      <point x="569" y="716"/>
      <point x="612" y="691" type="curve"/>
      <point x="612" y="493" type="line"/>
      <point x="599" y="493" type="line"/>
      <point x="599" y="683" type="line"/>
      <point x="559" y="706"/>
      <point x="521" y="714"/>
      <point x="476" y="714" type="curve" smooth="yes"/>
      <point x="430" y="714"/>
      <point x="393" y="706"/>
      <point x="352" y="683" type="curve"/>
      <point x="352" y="377" type="line"/>
      <point x="527" y="377" type="line"/>
      <point x="527" y="365" type="line"/>
      <point x="352" y="365" type="line"/>
      <point x="352" y="37" type="line"/>
      <point x="392" y="14"/>
      <point x="430" y="6"/>
      <point x="476" y="6" type="curve" smooth="yes"/>
      <point x="521" y="6"/>
      <point x="559" y="14"/>
      <point x="599" y="37" type="curve"/>
      <point x="599" y="227" type="line"/>
      <point x="612" y="227" type="line"/>
    </contour>
    <contour>
      <point x="339" y="38" type="curve"/>
      <point x="339" y="682" type="line"/>
      <point x="299" y="704"/>
      <point x="256" y="714"/>
      <point x="208" y="714" type="curve" smooth="yes"/>
      <point x="160" y="714"/>
      <point x="118" y="704"/>
      <point x="77" y="682" type="curve"/>
      <point x="77" y="38" type="line"/>
      <point x="118" y="15"/>
      <point x="160" y="6"/>
      <point x="208" y="6" type="curve" smooth="yes"/>
      <point x="256" y="6"/>
      <point x="299" y="15"/>
    </contour>
  </outline>
</glyph>
<glyph name="oe" format="1">
  <advance width="478"/>
  <unicode hex="0153"/>
  <outline>
    <contour>
      <point x="428" y="20" type="line"/>
      <point x="400" y="1"/>
      <point x="368" y="-6"/>
      <point x="333" y="-6" type="curve" smooth="yes"/>
      <point x="301" y="-6"/>
      <point x="271" y="0"/>
      <point x="245" y="16" type="curve"/>
      <point x="218" y="0"/>
      <point x="183" y="-6"/>
      <point x="151" y="-6" type="curve" smooth="yes"/>
      <point x="117" y="-6"/>
      <point x="79" y="1"/>
      <point x="51" y="20" type="curve"/>
      <point x="51" y="460" type="line"/>
      <point x="79" y="479"/>
      <point x="117" y="486"/>
      <point x="151" y="486" type="curve" smooth="yes"/>
      <point x="183" y="486"/>
      <point x="218" y="480"/>
      <point x="245" y="464" type="curve"/>
      <point x="271" y="480"/>
      <point x="301" y="486"/>
      <point x="333" y="486" type="curve" smooth="yes"/>
      <point x="368" y="486"/>
      <point x="400" y="479"/>
      <point x="428" y="460" type="curve"/>
      <point x="428" y="241" type="line"/>
      <point x="251" y="241" type="line"/>
      <point x="251" y="28" type="line"/>
      <point x="277" y="10"/>
      <point x="307" y="6"/>
      <point x="333" y="6" type="curve" smooth="yes"/>
      <point x="359" y="6"/>
      <point x="390" y="10"/>
      <point x="415" y="28" type="curve"/>
      <point x="415" y="146" type="line"/>
      <point x="428" y="146" type="line"/>
    </contour>
    <contour>
      <point x="415" y="252" type="line"/>
      <point x="415" y="452" type="line"/>
      <point x="390" y="469"/>
      <point x="359" y="474"/>
      <point x="333" y="474" type="curve" smooth="yes"/>
      <point x="307" y="474"/>
      <point x="277" y="469"/>
      <point x="251" y="452" type="curve"/>
      <point x="251" y="252" type="line"/>
    </contour>
    <contour>
      <point x="238" y="28" type="curve"/>
      <point x="238" y="452" type="line"/>
      <point x="213" y="469"/>
      <point x="177" y="474"/>
      <point x="151" y="474" type="curve" smooth="yes"/>
      <point x="125" y="474"/>
      <point x="90" y="469"/>
      <point x="64" y="452" type="curve"/>
      <point x="64" y="28" type="line"/>
      <point x="90" y="10"/>
      <point x="125" y="6"/>
      <point x="151" y="6" type="curve" smooth="yes"/>
      <point x="177" y="6"/>
      <point x="213" y="10"/>
    </contour>
  </outline>
</glyph>
<glyph name="caron" format="1">
  <advance width="289"/>
  <unicode hex="02C7"/>
  <outline>
    <contour>
      <point x="225" y="657" type="line"/>
      <point x="151" y="535" type="line"/>
      <point x="137" y="535" type="line"/>
      <point x="63" y="657" type="line"/>
      <point x="77" y="657" type="line"/>
      <point x="144" y="545" type="line"/>
      <point x="211" y="657" type="line"/>
    </contour>
  </outline>
</glyph>
<glyph name="breve" format="1">
  <advance width="289"/>
  <unicode hex="02D8"/>
  <outline>
    <contour>
      <point x="217" y="557" type="line"/>
      <point x="198" y="543"/>
      <point x="170" y="535"/>
      <point x="145" y="535" type="curve" smooth="yes"/>
      <point x="120" y="535"/>
      <point x="91" y="543"/>
      <point x="72" y="557" type="curve"/>
      <point x="72" y="657" type="line"/>
      <point x="85" y="657" type="line"/>
      <point x="85" y="564" type="line"/>
      <point x="102" y="552"/>
      <point x="126" y="547"/>
      <point x="145" y="547" type="curve" smooth="yes"/>
      <point x="163" y="547"/>
      <point x="188" y="552"/>
      <point x="204" y="564" type="curve"/>
      <point x="204" y="657" type="line"/>
      <point x="217" y="657" type="line"/>
    </contour>
  </outline>
</glyph>
<glyph name="dotaccent" format="1">
  <advance width="289"/>
  <unicode hex="02D9"/>
  <outline>
    <contour>
      <point x="151" y="535" type="line"/>
      <point x="138" y="535" type="line"/>
      <point x="138" y="645" type="line"/>
      <point x="151" y="645" type="line"/>
    </contour>
  </outline>
</glyph>
<glyph name="ring" format="1">
  <advance width="289"/>
  <unicode hex="02DA"/>
  <outline>
    <contour>
      <point x="217" y="557" type="line"/>
      <point x="198" y="543"/>
      <point x="170" y="535"/>
      <point x="145" y="535" type="curve" smooth="yes"/>
      <point x="120" y="535"/>
      <point x="91" y="543"/>
      <point x="72" y="557" type="curve"/>
      <point x="72" y="640" type="line"/>
      <point x="91" y="654"/>
      <point x="120" y="662"/>
      <point x="145" y="662" type="curve" smooth="yes"/>
      <point x="170" y="662"/>
      <point x="198" y="654"/>
      <point x="217" y="640" type="curve"/>
    </contour>
    <contour>
      <point x="204" y="564" type="curve"/>
      <point x="204" y="633" type="line"/>
      <point x="188" y="645"/>
      <point x="163" y="650"/>
      <point x="145" y="650" type="curve" smooth="yes"/>
      <point x="126" y="650"/>
      <point x="102" y="645"/>
      <point x="85" y="633" type="curve"/>
      <point x="85" y="564" type="line"/>
      <point x="102" y="552"/>
      <point x="126" y="547"/>
      <point x="145" y="547" type="curve" smooth="yes"/>
      <point x="163" y="547"/>
      <point x="188" y="552"/>
    </contour>
  </outline>
</glyph>
<glyph name="ogonek" format="1">
  <advance width="289"/>
  <unicode hex="02DB"/>
  <outline>
    <contour>
      <point x="201" y="-85" type="line"/>
      <point x="197" y="-85" type="line" smooth="yes"/>
      <point x="175" y="-85"/>
      <point x="154" y="-79"/>
      <point x="138" y="-62" type="curve"/>
      <point x="138" y="3" type="line"/>
      <point x="151" y="3" type="line"/>
      <point x="151" y="-56" type="line"/>
      <point x="164" y="-69"/>
      <point x="179" y="-73"/>
      <point x="197" y="-73" type="curve" smooth="yes"/>
      <point x="201" y="-73" type="line"/>
    </contour>
  </outline>
</glyph>
<glyph name="tilde" format="1">
  <advance width="289"/>
  <unicode hex="02DC"/>
  <outline>
    <contour>
      <point x="231" y="657" type="line"/>
      <point x="190" y="535" type="line"/>
      <point x="179" y="535" type="line"/>
      <point x="106" y="643" type="line"/>
      <point x="71" y="535" type="line"/>
      <point x="58" y="535" type="line"/>
      <point x="99" y="657" type="line"/>
      <point x="110" y="657" type="line"/>
      <point x="183" y="549" type="line"/>
      <point x="218" y="657" type="line"/>
    </contour>
  </outline>
</glyph>
<glyph name="hungarumlaut" format="1">
  <advance width="289"/>
  <unicode hex="02DD"/>
  <outline>
    <contour>
      <point x="235" y="657" type="line"/>
      <point x="174" y="535" type="line"/>
      <point x="159" y="535" type="line"/>
      <point x="220" y="657" type="line"/>
    </contour>
    <contour>
      <point x="130" y="657" type="line"/>
      <point x="69" y="535" type="line"/>
      <point x="54" y="535" type="line"/>
      <point x="115" y="657" type="line"/>
    </contour>
  </outline>
</glyph>
<glyph name="endash" format="1">
  <advance width="299"/>
  <unicode hex="2013"/>
  <outline>
    <contour>
      <point x="265" y="314" type="line"/>
      <point x="34" y="314" type="line"/>
      <point x="34" y="326" type="line"/>
      <point x="265" y="326" type="line"/>
    </contour>
  </outline>
</glyph>
<glyph name="emdash" format="1">
  <advance width="409"/>
  <unicode hex="2014"/>
  <outline>
    <contour>
      <point x="375" y="314" type="line"/>
      <point x="34" y="314" type="line"/>
      <point x="34" y="326" type="line"/>
      <point x="375" y="326" type="line"/>
    </contour>
  </outline>
</glyph>
<glyph name="quoteleft" format="1">
  <advance width="126"/>
  <unicode hex="2018"/>
  <unicode hex="02BB"/>
  <outline>
    <contour>
      <point x="79" y="488" type="line"/>
      <point x="66" y="488" type="line"/>
      <point x="45" y="720" type="line"/>
      <point x="58" y="720" type="line"/>
    </contour>
  </outline>
</glyph>
<glyph name="quoteright" format="1">
  <advance width="126"/>
  <unicode hex="2019"/>
  <unicode hex="02BC"/>
  <outline>
    <contour>
      <point x="79" y="720" type="line"/>
      <point x="58" y="488" type="line"/>
      <point x="45" y="488" type="line"/>
      <point x="66" y="720" type="line"/>
    </contour>
  </outline>
</glyph>
<glyph name="quotesinglbase" format="1">
  <advance width="126"/>
  <unicode hex="201A"/>
  <outline>
    <contour>
      <point x="73" y="96" type="line"/>
      <point x="52" y="-136" type="line"/>
      <point x="39" y="-136" type="line"/>
      <point x="60" y="96" type="line"/>
    </contour>
  </outline>
</glyph>
<glyph name="quotedblleft" format="1">
  <advance width="233"/>
  <unicode hex="201C"/>
  <outline>
    <contour>
      <point x="186" y="488" type="line"/>
      <point x="173" y="488" type="line"/>
      <point x="152" y="720" type="line"/>
      <point x="165" y="720" type="line"/>
    </contour>
    <contour>
      <point x="79" y="488" type="line"/>
      <point x="66" y="488" type="line"/>
      <point x="45" y="720" type="line"/>
      <point x="58" y="720" type="line"/>
    </contour>
  </outline>
</glyph>
<glyph name="quotedblright" format="1">
  <advance width="233"/>
  <unicode hex="201D"/>
  <outline>
    <contour>
      <point x="186" y="720" type="line"/>
      <point x="165" y="488" type="line"/>
      <point x="152" y="488" type="line"/>
      <point x="173" y="720" type="line"/>
    </contour>
    <contour>
      <point x="79" y="720" type="line"/>
      <point x="58" y="488" type="line"/>
      <point x="45" y="488" type="line"/>
      <point x="66" y="720" type="line"/>
    </contour>
  </outline>
</glyph>
<glyph name="quotedblbase" format="1">
  <advance width="233"/>
  <unicode hex="201E"/>
  <outline>
    <contour>
      <point x="180" y="96" type="line"/>
      <point x="159" y="-136" type="line"/>
      <point x="146" y="-136" type="line"/>
      <point x="167" y="96" type="line"/>
    </contour>
    <contour>
      <point x="73" y="96" type="line"/>
      <point x="52" y="-136" type="line"/>
      <point x="39" y="-136" type="line"/>
      <point x="60" y="96" type="line"/>
    </contour>
  </outline>
</glyph>
<glyph name="daggerdbl" format="1">
  <advance width="268"/>
  <unicode hex="2021"/>
  <outline>
    <contour>
      <point x="242" y="270" type="line"/>
      <point x="140" y="270" type="line"/>
      <point x="140" y="0" type="line"/>
      <point x="127" y="0" type="line"/>
      <point x="127" y="270" type="line"/>
      <point x="25" y="270" type="line"/>
      <point x="25" y="282" type="line"/>
      <point x="127" y="282" type="line"/>
      <point x="127" y="468" type="line"/>
      <point x="25" y="468" type="line"/>
      <point x="25" y="480" type="line"/>
      <point x="127" y="480" type="line"/>
      <point x="127" y="720" type="line"/>
      <point x="140" y="720" type="line"/>
      <point x="140" y="480" type="line"/>
      <point x="242" y="480" type="line"/>
      <point x="242" y="468" type="line"/>
      <point x="140" y="468" type="line"/>
      <point x="140" y="282" type="line"/>
      <point x="242" y="282" type="line"/>
    </contour>
  </outline>
</glyph>
<glyph name="bullet" format="1">
  <advance width="256"/>
  <unicode hex="2022"/>
  <outline>
    <contour>
      <point x="205" y="270" type="line"/>
      <point x="185" y="253"/>
      <point x="154" y="246"/>
      <point x="128" y="246" type="curve" smooth="yes"/>
      <point x="103" y="246"/>
      <point x="72" y="253"/>
      <point x="51" y="270" type="curve"/>
      <point x="51" y="475" type="line"/>
      <point x="72" y="492"/>
      <point x="103" y="499"/>
      <point x="128" y="499" type="curve" smooth="yes"/>
      <point x="154" y="499"/>
      <point x="185" y="492"/>
      <point x="205" y="475" type="curve"/>
    </contour>
  </outline>
</glyph>
<glyph name="ellipsis" format="1">
  <advance width="378"/>
  <unicode hex="2026"/>
  <outline>
    <contour>
      <point x="321" y="0" type="line"/>
      <point x="308" y="0" type="line"/>
      <point x="308" y="96" type="line"/>
      <point x="321" y="96" type="line"/>
    </contour>
    <contour>
      <point x="195" y="0" type="line"/>
      <point x="182" y="0" type="line"/>
      <point x="182" y="96" type="line"/>
      <point x="195" y="96" type="line"/>
    </contour>
    <contour>
      <point x="69" y="0" type="line"/>
      <point x="56" y="0" type="line"/>
      <point x="56" y="96" type="line"/>
      <point x="69" y="96" type="line"/>
    </contour>
  </outline>
</glyph>
<glyph name="guilsinglleft" format="1">
  <advance width="197"/>
  <unicode hex="2039"/>
  <outline>
    <contour>
      <point x="161" y="24" type="line"/>
      <point x="27" y="235" type="line"/>
      <point x="27" y="245" type="line"/>
      <point x="161" y="456" type="line"/>
      <point x="161" y="435" type="line"/>
      <point x="36" y="240" type="line"/>
      <point x="161" y="45" type="line"/>
    </contour>
  </outline>
</glyph>
<glyph name="guilsinglright" format="1">
  <advance width="197"/>
  <unicode hex="203A"/>
  <outline>
    <contour>
      <point x="170" y="235" type="line"/>
      <point x="36" y="24" type="line"/>
      <point x="36" y="45" type="line"/>
      <point x="161" y="240" type="line"/>
      <point x="36" y="435" type="line"/>
      <point x="36" y="456" type="line"/>
      <point x="170" y="245" type="line"/>
    </contour>
  </outline>
</glyph>
<glyph name="fraction" format="1">
  <advance width="265"/>
  <unicode hex="2044"/>
  <unicode hex="2215"/>
  <outline>
    <contour>
      <point x="249" y="720" type="line"/>
      <point x="30" y="0" type="line"/>
      <point x="16" y="0" type="line"/>
      <point x="235" y="720" type="line"/>
    </contour>
  </outline>
</glyph>
<glyph name="Euro" format="1">
  <advance width="416"/>
  <unicode hex="20AC"/>
  <outline>
    <contour>
      <point x="87" y="425" type="line"/>
      <point x="87" y="317" type="line"/>
      <point x="204" y="317" type="line"/>
      <point x="204" y="305" type="line"/>
      <point x="87" y="305" type="line"/>
      <point x="87" y="48" type="line"/>
      <point x="127" y="17"/>
      <point x="168" y="6"/>
      <point x="213" y="6" type="curve" smooth="yes"/>
      <point x="259" y="6"/>
      <point x="299" y="17"/>
      <point x="339" y="48" type="curve"/>
      <point x="339" y="227" type="line"/>
      <point x="352" y="227" type="line"/>
      <point x="352" y="41" type="line"/>
      <point x="309" y="7"/>
      <point x="263" y="-6"/>
      <point x="213" y="-6" type="curve" smooth="yes"/>
      <point x="164" y="-6"/>
      <point x="118" y="7"/>
      <point x="74" y="41" type="curve"/>
      <point x="74" y="305" type="line"/>
      <point x="37" y="305" type="line"/>
      <point x="37" y="317" type="line"/>
      <point x="74" y="317" type="line"/>
      <point x="74" y="425" type="line"/>
      <point x="37" y="425" type="line"/>
      <point x="37" y="437" type="line"/>
      <point x="74" y="437" type="line"/>
      <point x="74" y="679" type="line"/>
      <point x="118" y="713"/>
      <point x="164" y="726"/>
      <point x="213" y="726" type="curve" smooth="yes"/>
      <point x="263" y="726"/>
      <point x="309" y="713"/>
      <point x="352" y="679" type="curve"/>
      <point x="352" y="493" type="line"/>
      <point x="339" y="493" type="line"/>
      <point x="339" y="672" type="line"/>
      <point x="299" y="703"/>
      <point x="259" y="714"/>
      <point x="213" y="714" type="curve" smooth="yes"/>
      <point x="168" y="714"/>
      <point x="128" y="703"/>
      <point x="87" y="672" type="curve"/>
      <point x="87" y="437" type="line"/>
      <point x="204" y="437" type="line"/>
      <point x="204" y="425" type="line"/>
    </contour>
  </outline>
</glyph>
<glyph name="uni2117" format="1">
  <advance width="492"/>
  <unicode hex="2117"/>
  <outline>
    <contour>
      <point x="427" y="50" type="line"/>
      <point x="381" y="11"/>
      <point x="314" y="-6"/>
      <point x="246" y="-6" type="curve" smooth="yes"/>
      <point x="178" y="-6"/>
      <point x="111" y="11"/>
      <point x="64" y="50" type="curve"/>
      <point x="64" y="670" type="line"/>
      <point x="111" y="709"/>
      <point x="178" y="726"/>
      <point x="246" y="726" type="curve" smooth="yes"/>
      <point x="314" y="726"/>
      <point x="381" y="709"/>
      <point x="427" y="670" type="curve"/>
    </contour>
    <contour>
      <point x="414" y="56" type="curve"/>
      <point x="414" y="664" type="line"/>
      <point x="370" y="700"/>
      <point x="304" y="714"/>
      <point x="246" y="714" type="curve" smooth="yes"/>
      <point x="188" y="714"/>
      <point x="121" y="700"/>
      <point x="77" y="664" type="curve"/>
      <point x="77" y="56" type="line"/>
      <point x="121" y="20"/>
      <point x="188" y="6"/>
      <point x="246" y="6" type="curve" smooth="yes"/>
      <point x="304" y="6"/>
      <point x="370" y="20"/>
    </contour>
    <contour>
      <point x="327" y="385" type="line"/>
      <point x="305" y="358"/>
      <point x="279" y="351"/>
      <point x="246" y="351" type="curve" smooth="yes"/>
      <point x="185" y="351" type="line"/>
      <point x="185" y="100" type="line"/>
      <point x="172" y="100" type="line"/>
      <point x="172" y="621" type="line"/>
      <point x="246" y="621" type="line" smooth="yes"/>
      <point x="279" y="621"/>
      <point x="305" y="614"/>
      <point x="327" y="587" type="curve"/>
    </contour>
    <contour>
      <point x="315" y="391" type="curve"/>
      <point x="315" y="581" type="line"/>
      <point x="296" y="604"/>
      <point x="271" y="609"/>
      <point x="246" y="609" type="curve" smooth="yes"/>
      <point x="185" y="609" type="line"/>
      <point x="185" y="363" type="line"/>
      <point x="246" y="363" type="line" smooth="yes"/>
      <point x="272" y="363"/>
      <point x="296" y="368"/>
    </contour>
  </outline>
</glyph>
<glyph name="trademark" format="1">
  <advance width="541"/>
  <unicode hex="2122"/>
  <outline>
    <contour>
      <point x="486" y="293" type="line"/>
      <point x="473" y="293" type="line"/>
      <point x="473" y="689" type="line"/>
      <point x="447" y="704"/>
      <point x="410" y="711"/>
      <point x="374" y="712" type="curve"/>
      <point x="374" y="293" type="line"/>
      <point x="361" y="293" type="line"/>
      <point x="361" y="712" type="line"/>
      <point x="326" y="712"/>
      <point x="289" y="705"/>
      <point x="262" y="689" type="curve"/>
      <point x="262" y="293" type="line"/>
      <point x="249" y="293" type="line"/>
      <point x="249" y="696" type="line"/>
      <point x="282" y="715"/>
      <point x="324" y="723"/>
      <point x="368" y="723" type="curve" smooth="yes"/>
      <point x="411" y="723"/>
      <point x="454" y="715"/>
      <point x="486" y="696" type="curve"/>
    </contour>
    <contour>
      <point x="199" y="709" type="line"/>
      <point x="117" y="709" type="line"/>
      <point x="117" y="293" type="line"/>
      <point x="104" y="293" type="line"/>
      <point x="104" y="709" type="line"/>
      <point x="23" y="709" type="line"/>
      <point x="23" y="720" type="line"/>
      <point x="199" y="720" type="line"/>
    </contour>
  </outline>
</glyph>
<glyph name="radical" format="1">
  <advance width="330"/>
  <unicode hex="221A"/>
  <outline>
    <contour>
      <point x="295" y="720" type="line"/>
      <point x="156" y="0" type="line"/>
      <point x="144" y="0" type="line"/>
      <point x="36" y="311" type="line"/>
      <point x="50" y="311" type="line"/>
      <point x="149" y="21" type="line"/>
      <point x="282" y="720" type="line"/>
    </contour>
  </outline>
</glyph>
<glyph name="apple" format="1">
  <advance width="431"/>
  <unicode hex="F8FF"/>
  <outline>
    <contour>
      <point x="367" y="493" type="line"/>
      <point x="354" y="493" type="line"/>
      <point x="354" y="665" type="line"/>
      <point x="314" y="699"/>
      <point x="269" y="714"/>
      <point x="216" y="714" type="curve" smooth="yes"/>
      <point x="163" y="714"/>
      <point x="118" y="699"/>
      <point x="77" y="665" type="curve"/>
      <point x="77" y="493" type="line"/>
      <point x="64" y="493" type="line"/>
      <point x="64" y="671" type="line"/>
      <point x="108" y="709"/>
      <point x="158" y="726"/>
      <point x="216" y="726" type="curve" smooth="yes"/>
      <point x="273" y="726"/>
      <point x="324" y="709"/>
      <point x="367" y="671" type="curve"/>
    </contour>
    <contour>
      <point x="299" y="355" type="line"/>
      <point x="222" y="355" type="line"/>
      <point x="222" y="262" type="line"/>
      <point x="209" y="262" type="line"/>
      <point x="209" y="355" type="line"/>
      <point x="132" y="355" type="line"/>
      <point x="132" y="366" type="line"/>
      <point x="209" y="366" type="line"/>
      <point x="209" y="459" type="line"/>
      <point x="222" y="459" type="line"/>
      <point x="222" y="366" type="line"/>
      <point x="299" y="366" type="line"/>
    </contour>
    <contour>
      <point x="367" y="49" type="line"/>
      <point x="324" y="11"/>
      <point x="273" y="-6"/>
      <point x="216" y="-6" type="curve" smooth="yes"/>
      <point x="158" y="-6"/>
      <point x="108" y="11"/>
      <point x="64" y="49" type="curve"/>
      <point x="64" y="227" type="line"/>
      <point x="77" y="227" type="line"/>
      <point x="77" y="55" type="line"/>
      <point x="118" y="21"/>
      <point x="163" y="6"/>
      <point x="216" y="6" type="curve" smooth="yes"/>
      <point x="269" y="6"/>
      <point x="314" y="21"/>
      <point x="354" y="55" type="curve"/>
      <point x="354" y="227" type="line"/>
      <point x="367" y="227" type="line"/>
    </contour>
  </outline>
</glyph>
<glyph name="fi" format="1">
  <advance width="305"/>
  <unicode hex="FB01"/>
  <outline>
    <contour>
      <point x="248" y="629" type="line"/>
      <point x="235" y="629" type="line"/>
      <point x="235" y="720" type="line"/>
      <point x="248" y="720" type="line"/>
    </contour>
    <contour>
      <point x="248" y="0" type="line"/>
      <point x="235" y="0" type="line"/>
      <point x="235" y="480" type="line"/>
      <point x="248" y="480" type="line"/>
    </contour>
    <contour>
      <point x="163" y="711" type="line"/>
      <point x="152" y="711" type="line" smooth="yes"/>
      <point x="126" y="711"/>
      <point x="105" y="701"/>
      <point x="90" y="684" type="curve"/>
      <point x="90" y="480" type="line"/>
      <point x="158" y="480" type="line"/>
      <point x="158" y="468" type="line"/>
      <point x="90" y="468" type="line"/>
      <point x="90" y="0" type="line"/>
      <point x="77" y="0" type="line"/>
      <point x="77" y="468" type="line"/>
      <point x="40" y="468" type="line"/>
      <point x="40" y="480" type="line"/>
      <point x="77" y="480" type="line"/>
      <point x="77" y="690" type="line"/>
      <point x="93" y="710"/>
      <point x="122" y="722"/>
      <point x="152" y="722" type="curve" smooth="yes"/>
      <point x="163" y="722" type="line"/>
    </contour>
  </outline>
</glyph>
<glyph name="nbspace" format="1">
  <advance width="80"/>
  <outline>
    <contour>
      <point x="2" y="0" type="move"/>
    </contour>
  </outline>
</glyph>
<glyph name="registered" format="1">
  <advance width="492"/>
  <outline>
    <contour>
      <point x="427" y="50" type="line"/>
      <point x="381" y="11"/>
      <point x="314" y="-6"/>
      <point x="246" y="-6" type="curve" smooth="yes"/>
      <point x="178" y="-6"/>
      <point x="111" y="11"/>
      <point x="64" y="50" type="curve"/>
      <point x="64" y="670" type="line"/>
      <point x="111" y="709"/>
      <point x="178" y="726"/>
      <point x="246" y="726" type="curve" smooth="yes"/>
      <point x="314" y="726"/>
      <point x="381" y="709"/>
      <point x="427" y="670" type="curve"/>
    </contour>
    <contour>
      <point x="414" y="56" type="curve"/>
      <point x="414" y="664" type="line"/>
      <point x="370" y="700"/>
      <point x="304" y="714"/>
      <point x="246" y="714" type="curve" smooth="yes"/>
      <point x="188" y="714"/>
      <point x="121" y="700"/>
      <point x="77" y="664" type="curve"/>
      <point x="77" y="56" type="line"/>
      <point x="121" y="20"/>
      <point x="188" y="6"/>
      <point x="246" y="6" type="curve" smooth="yes"/>
      <point x="304" y="6"/>
      <point x="370" y="20"/>
    </contour>
    <contour>
      <point x="325" y="100" type="line"/>
      <point x="312" y="100" type="line"/>
      <point x="312" y="329" type="line"/>
      <point x="292" y="350"/>
      <point x="269" y="356"/>
      <point x="246" y="356" type="curve" smooth="yes"/>
      <point x="181" y="356" type="line"/>
      <point x="181" y="100" type="line"/>
      <point x="168" y="100" type="line"/>
      <point x="168" y="621" type="line"/>
      <point x="242" y="621" type="line" smooth="yes"/>
      <point x="275" y="621"/>
      <point x="301" y="614"/>
      <point x="323" y="587" type="curve"/>
      <point x="323" y="390" type="line"/>
      <point x="311" y="376"/>
      <point x="294" y="366"/>
      <point x="278" y="362" type="curve"/>
      <point x="295" y="358"/>
      <point x="312" y="348"/>
      <point x="325" y="334" type="curve"/>
    </contour>
    <contour>
      <point x="311" y="394" type="curve"/>
      <point x="311" y="581" type="line"/>
      <point x="292" y="604"/>
      <point x="267" y="609"/>
      <point x="242" y="609" type="curve" smooth="yes"/>
      <point x="181" y="609" type="line"/>
      <point x="181" y="368" type="line"/>
      <point x="244" y="368" type="line" smooth="yes"/>
      <point x="269" y="368"/>
      <point x="294" y="375"/>
    </contour>
  </outline>
</glyph>
